<svg width="445" height="350" viewBox="0 0 445 350" fill="none" xmlns="http://www.w3.org/2000/svg">
<rect width="445" height="350" fill="white"/>
<path d="M116.747 100C117.344 100 117.922 99.7583 118.336 99.3427C118.759 98.9173 119 98.3373 119 97.738C119 89.6277 119 62.0487 119 53.9287C119 53.3293 118.759 52.7493 118.336 52.3337C117.912 51.918 117.344 51.6667 116.747 51.6667C108.507 51.6667 80.4952 51.6667 80.4952 51.6667C80.4952 51.6667 77.6073 45.8667 76.3078 43.247C75.9227 42.4833 75.143 42 74.2959 42C69.0785 42 50.6925 42 44.2525 42C43.0107 42 42 43.015 42 44.262C42 53.5227 42 88.4773 42 97.738C42 98.985 43.0107 100 44.2525 100C55.4959 100 105.494 100 116.747 100Z" fill="#F7F7F7" stroke="#3C3C3C" stroke-width="1.3" stroke-miterlimit="1.5" stroke-linecap="square"/>
<path d="M132.747 121C133.344 121 133.922 120.763 134.336 120.354C134.759 119.936 135 119.366 135 118.777C135 110.806 135 83.703 135 75.723C135 75.134 134.759 74.564 134.336 74.1555C133.912 73.747 133.344 73.5 132.747 73.5C124.507 73.5 96.4952 73.5 96.4952 73.5C96.4952 73.5 93.6073 67.8 92.3078 65.2255C91.9227 64.475 91.143 64 90.2959 64C85.0785 64 66.6925 64 60.2525 64C59.0107 64 58 64.9975 58 66.223C58 75.324 58 109.676 58 118.777C58 120.002 59.0107 121 60.2525 121C71.4959 121 121.494 121 132.747 121Z" fill="#EDEBF3" stroke="#3C3C3C" stroke-width="1.3" stroke-miterlimit="1.5" stroke-linecap="square"/>
<path d="M73.0234 91.0981C85.8608 102.311 106.198 102.311 119.036 91.0981" stroke="#3C3C3C" stroke-width="1.3" stroke-miterlimit="1.5" stroke-linecap="square"/>
<path d="M201.238 26.2082V19.5" stroke="#C6C6C6" stroke-width="1.3" stroke-miterlimit="1.5" stroke-linejoin="bevel"/>
<path d="M201.238 59.7492V53.041" stroke="#C6C6C6" stroke-width="1.3" stroke-miterlimit="1.5" stroke-linejoin="bevel"/>
<path d="M194.492 28.0061L191.119 22.1968" stroke="#C6C6C6" stroke-width="1.3" stroke-miterlimit="1.5" stroke-linejoin="bevel"/>
<path d="M211.357 57.0525L207.984 51.2432" stroke="#C6C6C6" stroke-width="1.3" stroke-miterlimit="1.5" stroke-linejoin="bevel"/>
<path d="M194.492 51.2432L191.119 57.0525" stroke="#C6C6C6" stroke-width="1.3" stroke-miterlimit="1.5" stroke-linejoin="bevel"/>
<path d="M211.357 22.1968L207.984 28.0061" stroke="#C6C6C6" stroke-width="1.3" stroke-miterlimit="1.5" stroke-linejoin="bevel"/>
<path d="M187.746 39.6245H181" stroke="#C6C6C6" stroke-width="1.3" stroke-miterlimit="1.5" stroke-linejoin="bevel"/>
<path d="M221.477 39.6245H214.73" stroke="#C6C6C6" stroke-width="1.3" stroke-miterlimit="1.5" stroke-linejoin="bevel"/>
<path d="M189.553 32.9166L183.711 29.5625" stroke="#C6C6C6" stroke-width="1.3" stroke-miterlimit="1.5" stroke-linejoin="bevel"/>
<path d="M218.764 49.6866L212.922 46.3325" stroke="#C6C6C6" stroke-width="1.3" stroke-miterlimit="1.5" stroke-linejoin="bevel"/>
<path d="M212.922 32.9166L218.764 29.5625" stroke="#C6C6C6" stroke-width="1.3" stroke-miterlimit="1.5" stroke-linejoin="bevel"/>
<path d="M183.711 49.6866L189.553 46.3325" stroke="#C6C6C6" stroke-width="1.3" stroke-miterlimit="1.5" stroke-linejoin="bevel"/>
<path d="M357 43.7842H375" stroke="#3C3C3C" stroke-width="1.3" stroke-miterlimit="1.5" stroke-linecap="square"/>
<path d="M365.65 137.117C368.412 137.117 370.65 134.873 370.65 132.104C370.65 129.336 368.412 127.092 365.65 127.092C362.889 127.092 360.65 129.336 360.65 132.104C360.65 134.873 362.889 137.117 365.65 137.117Z" stroke="#3C3C3C" stroke-width="1.3" stroke-miterlimit="1.5" stroke-linecap="square"/>
<path d="M334.144 37.8667C334.144 36.0165 335.644 34.5167 337.494 34.5167H395.001C396.851 34.5167 398.351 36.0165 398.351 37.8667V139.407C398.351 141.257 396.851 142.757 395.001 142.757H337.494C335.644 142.757 334.144 141.257 334.144 139.407V37.8667Z" stroke="#3C3C3C" stroke-width="1.3" stroke-miterlimit="1.5" stroke-linecap="square"/>
<rect x="343" y="52.0288" width="46" height="18.3184" fill="#F7F7F7"/>
<rect x="343" y="76.4526" width="46" height="18.3184" fill="#F7F7F7"/>
<rect x="343" y="100.877" width="46" height="18.3184" fill="#F7F7F7"/>
<path d="M134.65 262.415V167.715H311.35V262.415H134.65Z" fill="#DFCBE1" stroke="#3C3C3C" stroke-width="1.3" stroke-miterlimit="1.5" stroke-linecap="square"/>
<path d="M311.656 167.812L223.757 110.23L134.355 167.605L311.656 167.812Z" fill="#DFCBE1" stroke="#3C3C3C" stroke-width="1.3" stroke-miterlimit="1.5" stroke-linecap="square"/>
<path d="M311 262L223.264 215L135 262" stroke="#3C3C3C" stroke-width="1.3" stroke-miterlimit="1.5" stroke-linecap="square"/>
<mask id="path-25-inside-1" fill="white">
<path d="M135 168.065L223 215.065L311 168.065"/>
</mask>
<path d="M135 168.065L223 215.065L311 168.065" fill="#3C3C3C"/>
<path d="M135 167.415H134.35V168.715H135V167.415ZM311 168.715H311.65V167.415H311V168.715ZM135 168.715H311V167.415H135V168.715ZM135.612 166.918L134.466 166.306L133.241 168.599L134.388 169.212L135.612 166.918ZM223 215.065L222.388 216.212L223 216.539L223.612 216.212L223 215.065ZM311.612 169.212L312.759 168.599L311.534 166.306L310.388 166.918L311.612 169.212ZM134.388 169.212L222.388 216.212L223.612 213.918L135.612 166.918L134.388 169.212ZM223.612 216.212L311.612 169.212L310.388 166.918L222.388 213.918L223.612 216.212Z" fill="#3C3C3C" mask="url(#path-25-inside-1)"/>
<path d="M167.025 184.757L167.025 92.65L279.036 92.6501L279.036 184.757L223.03 214.76L167.025 184.757Z" fill="white" stroke="#3C3C3C" stroke-width="1.3" stroke-miterlimit="1.5" stroke-linecap="square"/>
<path d="M189.754 126.331H242.705" stroke="#3C3C3C" stroke-width="1.3"/>
<path d="M189.754 142.994H226.042" stroke="#3C3C3C" stroke-width="1.3"/>
<path d="M189.754 159.657H238.54" stroke="#3C3C3C" stroke-width="1.3"/>
<path d="M278.5 68.65C284.554 68.65 290.374 71.1151 294.652 75.4837C298.932 79.8749 301.35 85.8053 301.35 92C301.35 98.1945 298.932 104.125 294.652 108.516C290.354 112.905 284.555 115.35 278.5 115.35C272.446 115.35 266.625 112.885 262.347 108.516C258.049 104.126 255.65 98.1962 255.65 92C255.65 85.8042 258.069 79.8536 262.347 75.4842C266.645 71.0948 272.445 68.65 278.5 68.65Z" fill="#76B82A" stroke="#3C3C3C" stroke-width="1.3" stroke-miterlimit="1.5" stroke-linecap="square"/>
<path d="M270.289 91.515L276.348 96.938L287.293 84.9639" stroke="#3C3C3C" stroke-width="1.3" stroke-miterlimit="1.5" stroke-linecap="square"/>
<path d="M311.344 186V187.124C311.344 189.866 312.434 192.505 314.373 194.444C316.311 196.383 318.95 197.473 321.692 197.473C322.392 197.473 322.828 197.473 322.828 197.473H321.692C318.95 197.473 316.311 198.563 314.373 200.502C312.434 202.441 311.344 205.079 311.344 207.821C311.344 208.521 311.344 208.946 311.344 208.946V207.821C311.344 205.079 310.254 202.441 308.315 200.502C306.376 198.563 303.737 197.473 300.995 197.473C300.295 197.473 299.859 197.473 299.859 197.473H300.995C303.737 197.473 306.376 196.383 308.315 194.444C310.254 192.505 311.344 189.866 311.344 187.124C311.344 186.436 311.344 186 311.344 186Z" fill="white" stroke="#3C3C3C" stroke-width="1.3" stroke-miterlimit="1.5" stroke-linecap="square"/>
<path d="M330 175.207C333.355 175.207 336.078 172.355 336.078 169C336.078 172.355 338.796 175.207 342.155 175.207C338.8 175.207 336.078 178.205 336.078 181.56L336.078 181.281L336.078 181.56C336.074 178.205 333.355 175.207 330 175.207Z" fill="white" stroke="#3C3C3C" stroke-width="1.3" stroke-miterlimit="1.5" stroke-linejoin="bevel"/>
<path d="M373.5 315.85H324.65V276.15H393.35V315.85H386.5H385.85V316.5V325.18L373.896 315.985L373.721 315.85H373.5Z" fill="#F7F7F7" stroke="#3C3C3C" stroke-width="1.3" stroke-miterlimit="1.5" stroke-linecap="square"/>
<path d="M317.594 334.492L306.15 343.648V335V334.35H305.5H297.65V294.65H365.35V334.35H318H317.772L317.594 334.492Z" fill="#EDEBF3" stroke="#3C3C3C" stroke-width="1.3" stroke-miterlimit="1.5" stroke-linecap="square"/>
<line x1="308.857" y1="306.496" x2="355.157" y2="306.496" stroke="#3C3C3C" stroke-width="1.3"/>
<line x1="308.857" y1="314.573" x2="339.583" y2="314.573" stroke="#3C3C3C" stroke-width="1.3"/>
<line x1="308.857" y1="323.239" x2="347.469" y2="324.815" stroke="#3C3C3C" stroke-width="1.3"/>
<line x1="167" y1="301.35" x2="197" y2="301.35" stroke="#BBBBBB" stroke-width="1.3"/>
<line x1="129" y1="333.35" x2="145" y2="333.35" stroke="#BBBBBB" stroke-width="1.3"/>
<line x1="182.35" y1="316" x2="182.35" y2="286" stroke="#BBBBBB" stroke-width="1.3"/>
<line x1="137.35" y1="341" x2="137.35" y2="325" stroke="#BBBBBB" stroke-width="1.3"/>
<path d="M62.2857 300C57.8971 300 52.7543 295.954 47.7829 290.503C35.0629 276.514 28 258.309 28 239.417C28 234.857 28 231.429 28 231.429L42.8571 220H62.8571H82.8571L96.5714 231.429V239.451C96.5714 258.549 89.3714 276.926 76.4457 290.949C71.5771 296.16 66.5371 300 62.2857 300Z" fill="#FDEFE7" stroke="#3C3C3C" stroke-width="1.3" stroke-miterlimit="1.5" stroke-linecap="round"/>
<path d="M53.848 261.843V262.493H54.498H57.0634H57.7134V261.843H57.0634C57.7134 261.843 57.7134 261.843 57.7134 261.843V261.842V261.841V261.84V261.839V261.837V261.835V261.833V261.831V261.828V261.825V261.822V261.818V261.814V261.81V261.805V261.8V261.795V261.79V261.784V261.778V261.772V261.766V261.759V261.752V261.745V261.737V261.729V261.721V261.713V261.704V261.695V261.686V261.676V261.667V261.656V261.646V261.636V261.625V261.614V261.602V261.591V261.579V261.567V261.554V261.542V261.529V261.515V261.502V261.488V261.474V261.46V261.446V261.431V261.416V261.401V261.385V261.369V261.354V261.337V261.321V261.304V261.287V261.27V261.252V261.235V261.217V261.199V261.18V261.162V261.143V261.123V261.104V261.084V261.065V261.045V261.024V261.004V260.983V260.962V260.941V260.919V260.897V260.875V260.853V260.831V260.808V260.785V260.762V260.739V260.715V260.692V260.668V260.644V260.619V260.595V260.57V260.545V260.519V260.494V260.468V260.442V260.416V260.39V260.363V260.336V260.309V260.282V260.255V260.227V260.199V260.171V260.143V260.115V260.086V260.057V260.028V259.999V259.97V259.94V259.91V259.88V259.85V259.82V259.789V259.758V259.727V259.696V259.665V259.633V259.601V259.569V259.537V259.505V259.472V259.44V259.407V259.374V259.34V259.307V259.273V259.24V259.206V259.171V259.137V259.103V259.068V259.033V258.998V258.963V258.927V258.892V258.856V258.82V258.784V258.748V258.712V258.675V258.638V258.601V258.564V258.527V258.49V258.452V258.414V258.376V258.338V258.3V258.262V258.223V258.185V258.146V258.107V258.068V258.028V257.989V257.949V257.91V257.87V257.83V257.789V257.749V257.709V257.668V257.627V257.586V257.545V257.504V257.463V257.421V257.379V257.338V257.296V257.254V257.212V257.169V257.127V257.084V257.041V256.999V256.956V256.912V256.869V256.826V256.782V256.739V256.695V256.651V256.607V256.563V256.519V256.474V256.43V256.385V256.34V256.295V256.25V256.205V256.16V256.115V256.069V256.024V255.978V255.932V255.886V255.84V255.794V255.748V255.702V255.655V255.608V255.562V255.515V255.468V255.421V255.374V255.327V255.28V255.232V255.185V255.137V255.089V255.042V254.994V254.946V254.898V254.849V254.801V254.753V254.704V254.656V254.607V254.559V254.51V254.461V254.412V254.363V254.314V254.264V254.215V254.166V254.116V254.067V254.017V253.967V253.918V253.868V253.818V253.768V253.718V253.667V253.617V253.567V253.516V253.466V253.415V253.365V253.314V253.263V253.213V253.162V253.111V253.06V253.009V252.958V252.906V252.855V252.804V252.752V252.701V252.65V252.598V252.546V252.495V252.443V252.391V252.34V252.288V252.236V252.184V252.132V252.08V252.028V251.975V251.923V251.871V251.819V251.766V251.714V251.662V251.609V251.557V251.504V251.451V251.399V251.346V251.294V251.241V251.188V251.135V251.082V251.03V250.977V250.924V250.871V250.818V250.765V250.712V250.659V250.606V250.553V250.499V250.446V250.393V250.34V250.287V250.233V250.18V250.127V250.074V250.02V249.967V249.914V249.86V249.807V249.754V249.7V249.647V249.593V249.54V249.487V249.433V249.38V249.326V249.273V249.219V249.166V249.112V249.059V249.006V248.952V248.899V248.845V248.792V248.738V248.685V248.631V248.578V248.525V248.471V248.418V248.364V248.311V248.258V248.204V248.151V248.098V248.044V247.991V247.938V247.884V247.831V247.778V247.725V247.671V247.618V247.565V247.512V247.459V247.406V247.353V247.3V247.247V247.194V247.141V247.088V247.035V246.982V246.929V246.876V246.824V246.771V246.718V246.666V246.613V246.56V246.508V246.455V246.403V246.35V246.298V246.246V246.193V246.141V246.089V246.037V245.985V245.933V245.881V245.829V245.777V245.725V245.673V245.621V245.57V245.518V245.466V245.415V245.363V245.312V245.26V245.209V245.158V245.107V245.056V245.004V244.953V244.903V244.852V244.801V244.75V244.699V244.649V244.598V244.548V244.497V244.447V244.397V244.347V244.296V244.246V244.196V244.147V244.097V244.047V243.997V243.948V243.898V243.849V243.8V243.75V243.701V243.652V243.603V243.554V243.505V243.457V243.408V243.36V243.311V243.263V243.214V243.166V243.118V243.07V243.022V242.974V242.927V242.879V242.832V242.784V242.737V242.69V242.643V242.596V242.549V242.502V242.455V242.409V242.362V242.316V242.27V242.223V242.177V242.131V242.086V242.04V241.994V241.949V241.903V241.858V241.813V241.768V241.723V241.678V241.634V241.589V241.545V241.501V241.456V241.412V241.368C57.7134 238.883 59.7291 236.865 62.2172 236.865C64.6722 236.865 66.6621 238.855 66.6621 241.31V241.353V241.397V241.441V241.486V241.53V241.575V241.619V241.664V241.709V241.754V241.799V241.844V241.889V241.935V241.98V242.026V242.072V242.118V242.164V242.21V242.256V242.303V242.349V242.396V242.442V242.489V242.536V242.583V242.63V242.677V242.725V242.772V242.82V242.867V242.915V242.963V243.011V243.059V243.107V243.155V243.203V243.252V243.3V243.349V243.397V243.446V243.495V243.544V243.593V243.642V243.691V243.74V243.79V243.839V243.889V243.938V243.988V244.038V244.088V244.138V244.188V244.238V244.288V244.338V244.388V244.439V244.489V244.54V244.59V244.641V244.692V244.743V244.794V244.844V244.895V244.947V244.998V245.049V245.1V245.151V245.203V245.254V245.306V245.357V245.409V245.461V245.512V245.564V245.616V245.668V245.72V245.772V245.824V245.876V245.928V245.98V246.033V246.085V246.137V246.19V246.242V246.295V246.347V246.4V246.452V246.505V246.558V246.61V246.663V246.716V246.769V246.822V246.875V246.927V246.98V247.033V247.086V247.14V247.193V247.246V247.299V247.352V247.405V247.459V247.512V247.565V247.618V247.672V247.725V247.778V247.832V247.885V247.939V247.992V248.045V248.099V248.152V248.206V248.259V248.313V248.366V248.42V248.473V248.527V248.581V248.634V248.688V248.741V248.795V248.849V248.902V248.956V249.009V249.063V249.117V249.17V249.224V249.277V249.331V249.384V249.438V249.492V249.545V249.599V249.652V249.706V249.759V249.813V249.866V249.92V249.973V250.027V250.08V250.134V250.187V250.24V250.294V250.347V250.4V250.454V250.507V250.56V250.614V250.667V250.72V250.773V250.826V250.879V250.933V250.986V251.039V251.092V251.145V251.197V251.25V251.303V251.356V251.409V251.462V251.514V251.567V251.62V251.672V251.725V251.777V251.83V251.882V251.934V251.987V252.039V252.091V252.143V252.196V252.248V252.3V252.352V252.404V252.456V252.507V252.559V252.611V252.663V252.714V252.766V252.817V252.869V252.92V252.971V253.023V253.074V253.125V253.176V253.227V253.278V253.329V253.379V253.43V253.481V253.531V253.582V253.632V253.683V253.733V253.783V253.833V253.883V253.933V253.983V254.033V254.083V254.132V254.182V254.232V254.281V254.33V254.38V254.429V254.478V254.527V254.576V254.624V254.673V254.722V254.77V254.819V254.867V254.915V254.964V255.012V255.06V255.107V255.155V255.203V255.251V255.298V255.345V255.393V255.44V255.487V255.534V255.581V255.627V255.674V255.721V255.767V255.813V255.86V255.906V255.952V255.998V256.043V256.089V256.134V256.18V256.225V256.27V256.315V256.36V256.405V256.45V256.494V256.539V256.583V256.627V256.672V256.715V256.759V256.803V256.847V256.89V256.933V256.976V257.019V257.062V257.105V257.148V257.19V257.233V257.275V257.317V257.359V257.401V257.442V257.484V257.525V257.567V257.608V257.649V257.689V257.73V257.771V257.811V257.851V257.891V257.931V257.971V258.011V258.05V258.089V258.129V258.168V258.206V258.245V258.284V258.322V258.36V258.398V258.436V258.474V258.511V258.549V258.586V258.623V258.66V258.697V258.733V258.77V258.806V258.842V258.878V258.914V258.949V258.985V259.02V259.055V259.09V259.124V259.159V259.193V259.227V259.261V259.295V259.329V259.362V259.395V259.428V259.461V259.494V259.526V259.558V259.591V259.622V259.654V259.686V259.717V259.748V259.779V259.81V259.84V259.871V259.901V259.931V259.961V259.99V260.02V260.049V260.078V260.106V260.135V260.163V260.192V260.219V260.247V260.275V260.302V260.329V260.356V260.383V260.409V260.435V260.461V260.487V260.513V260.538V260.563V260.588V260.613V260.638V260.662V260.686V260.71V260.734V260.757V260.78V260.803V260.826V260.848V260.871V260.893V260.915V260.936V260.957V260.979V260.999V261.02V261.041V261.061V261.081V261.1V261.12V261.139V261.158V261.177V261.195V261.214V261.232V261.25V261.267V261.284V261.301V261.318V261.335V261.351V261.367V261.383V261.398V261.414V261.429V261.444V261.458V261.472V261.486V261.5V261.514V261.527V261.54V261.553V261.565V261.577V261.589V261.601V261.613V261.624V261.635V261.645V261.656V261.666V261.675V261.685V261.694V261.703V261.712V261.72V261.729V261.737V261.744V261.751V261.759V261.765V261.772V261.778V261.784V261.79V261.795V261.8V261.805V261.81V261.814V261.818V261.821V261.825V261.828V261.831V261.833V261.835V261.837V261.839V261.84V261.841V261.842V261.843C66.6621 261.843 66.6621 261.843 67.3121 261.843H66.6621V262.493H67.3121H69.8749H70.5249V261.843H69.8749C70.5249 261.843 70.5249 261.843 70.5249 261.843V261.842V261.841V261.84V261.839V261.838V261.836V261.834V261.832V261.829V261.826V261.823V261.819V261.816V261.812V261.808V261.803V261.798V261.793V261.788V261.782V261.777V261.771V261.764V261.758V261.751V261.744V261.736V261.729V261.721V261.713V261.704V261.696V261.687V261.677V261.668V261.658V261.648V261.638V261.628V261.617V261.606V261.595V261.584V261.572V261.56V261.548V261.535V261.523V261.51V261.497V261.483V261.47V261.456V261.442V261.427V261.413V261.398V261.383V261.368V261.352V261.336V261.32V261.304V261.288V261.271V261.254V261.237V261.219V261.202V261.184V261.166V261.148V261.129V261.11V261.091V261.072V261.053V261.033V261.013V260.993V260.973V260.952V260.932V260.911V260.89V260.868V260.847V260.825V260.803V260.78V260.758V260.735V260.712V260.689V260.666V260.642V260.619V260.595V260.571V260.546V260.522V260.497V260.472V260.447V260.421V260.396V260.37V260.344V260.318V260.291V260.265V260.238V260.211V260.184V260.157V260.129V260.101V260.073V260.045V260.017V259.988V259.959V259.931V259.901V259.872V259.843V259.813V259.783V259.753V259.723V259.692V259.662V259.631V259.6V259.569V259.538V259.506V259.474V259.443V259.411V259.378V259.346V259.313V259.281V259.248V259.215V259.181V259.148V259.114V259.08V259.046V259.012V258.978V258.944V258.909V258.874V258.839V258.804V258.769V258.733V258.698V258.662V258.626V258.59V258.554V258.517V258.481V258.444V258.407V258.37V258.333V258.295V258.258V258.22V258.182V258.144V258.106V258.068V258.029V257.991V257.952V257.913V257.874V257.835V257.796V257.756V257.716V257.677V257.637V257.597V257.556V257.516V257.476V257.435V257.394V257.353V257.312V257.271V257.23V257.188V257.147V257.105V257.063V257.021V256.979V256.937V256.895V256.852V256.81V256.767V256.724V256.681V256.638V256.595V256.551V256.508V256.464V256.42V256.376V256.332V256.288V256.244V256.2V256.155V256.111V256.066V256.021V255.976V255.931V255.886V255.841V255.795V255.75V255.704V255.658V255.613V255.567V255.521V255.474V255.428V255.382V255.335V255.289V255.242V255.195V255.148V255.101V255.054V255.007V254.96V254.912V254.865V254.817V254.769V254.722V254.674V254.626V254.578V254.53V254.481V254.433V254.384V254.336V254.287V254.239V254.19V254.141V254.092V254.043V253.994V253.944V253.895V253.846V253.796V253.747V253.697V253.647V253.598V253.548V253.498V253.448V253.398V253.347V253.297V253.247V253.196V253.146V253.095V253.045V252.994V252.943V252.892V252.841V252.79V252.739V252.688V252.637V252.586V252.534V252.483V252.432V252.38V252.328V252.277V252.225V252.173V252.122V252.07V252.018V251.966V251.914V251.862V251.81V251.757V251.705V251.653V251.6V251.548V251.496V251.443V251.39V251.338V251.285V251.232V251.18V251.127V251.074V251.021V250.968V250.915V250.862V250.809V250.756V250.703V250.65V250.597V250.543V250.49V250.437V250.383V250.33V250.276V250.223V250.17V250.116V250.062V250.009V249.955V249.902V249.848V249.794V249.74V249.687V249.633V249.579V249.525V249.471V249.418V249.364V249.31V249.256V249.202V249.148V249.094V249.04V248.986V248.932V248.878V248.824V248.769V248.715V248.661V248.607V248.553V248.499V248.445V248.39V248.336V248.282V248.228V248.174V248.119V248.065V248.011V247.957V247.903V247.848V247.794V247.74V247.686V247.631V247.577V247.523V247.469V247.414V247.36V247.306V247.252V247.198V247.143V247.089V247.035V246.981V246.927V246.873V246.818V246.764V246.71V246.656V246.602V246.548V246.494V246.44V246.386V246.332V246.278V246.224V246.17V246.116V246.062V246.008V245.955V245.901V245.847V245.793V245.739V245.686V245.632V245.578V245.525V245.471V245.417V245.364V245.31V245.257V245.203V245.15V245.097V245.043V244.99V244.937V244.883V244.83V244.777V244.724V244.671V244.618V244.565V244.512V244.459V244.406V244.353V244.3V244.248V244.195V244.142V244.09V244.037V243.985V243.932V243.88V243.827V243.775V243.723V243.671V243.619V243.566V243.514V243.462V243.411V243.359V243.307V243.255V243.204V243.152V243.1V243.049V242.997V242.946V242.895V242.844V242.792V242.741V242.69V242.639V242.588V242.538V242.487V242.436V242.385V242.335V242.284V242.234V242.184V242.133V242.083V242.033V241.983V241.933V241.883V241.834V241.784V241.734V241.685V241.635V241.586V241.537V241.487V241.438V241.389V241.34C70.5249 239.13 69.6436 237.01 68.0822 235.445C66.5198 233.88 64.3987 233.002 62.1865 233.002C59.976 233.002 57.8557 233.883 56.2915 235.445C54.7263 237.007 53.848 239.128 53.848 241.34V261.843Z" fill="#EDEDED" stroke="#3C3C3C" stroke-width="1.3" stroke-miterlimit="1.5" stroke-linecap="square"/>
<rect x="48.35" y="249.35" width="28.3" height="23.3" fill="#FFC382" stroke="#3C3C3C" stroke-width="1.3" stroke-miterlimit="1.5" stroke-linecap="round" stroke-linejoin="round"/>
<path d="M64.9675 267.65C65.1687 267.65 65.3586 267.557 65.4817 267.398C65.6048 267.238 65.6472 267.031 65.5966 266.836L64.4334 262.362C65.7566 261.647 66.65 260.224 66.65 258.6C66.65 256.272 64.807 254.35 62.5 254.35C60.193 254.35 58.35 256.272 58.35 258.6C58.35 260.224 59.2434 261.647 60.5666 262.362L59.4034 266.836C59.3528 267.031 59.3952 267.238 59.5183 267.398C59.6414 267.557 59.8313 267.65 60.0325 267.65H64.9675Z" fill="white" stroke="#3C3C3C" stroke-width="1.3" stroke-miterlimit="1.5" stroke-linecap="round" stroke-linejoin="round"/>
</svg>