<svg xmlns="http://www.w3.org/2000/svg" id="Layer_1" viewBox="0 0 721 416">
  <defs>
    <style>.cls-2,.cls-3,.cls-4,.cls-5{fill:#e8e9fa}.cls-7,.cls-8,.cls-9{fill:#fefefe}.cls-10,.cls-11{fill:gray}.cls-13,.cls-14,.cls-15,.cls-16,.cls-17,.cls-18,.cls-3,.cls-5,.cls-7,.cls-9{stroke:gray;stroke-width:2px}.cls-11,.cls-19,.cls-4,.cls-7,.cls-8{fill-rule:evenodd}.cls-17,.cls-19{fill:#fcfcfc}.cls-13,.cls-14,.cls-15,.cls-16{fill:none}.cls-13,.cls-15{stroke-linecap:round}.cls-15,.cls-16,.cls-3,.cls-7,.cls-9{stroke-linejoin:round}.cls-18{fill:#fff}</style>
    <mask id="mask" x="240.85" y="195.46" width="88.19" height="84.42" maskUnits="userSpaceOnUse">
      <ellipse class="cls-9" cx="292.19" cy="230.59" rx="38.68" ry="30.88" transform="rotate(-38.61 292.14 230.569)" id="mask0_34_972"/>
    </mask>
  </defs>
  <g style="opacity:.5">
    <rect class="cls-5" x="447" y="1" width="162" height="414" rx="10.32" ry="10.32"/>
    <rect class="cls-18" x="495" y="1" width="162" height="414" rx="10.32" ry="10.32"/>
    <path class="cls-4" d="M510 28.5a4.5 4.5 0 0 1 4.5-4.5h90a4.5 4.5 0 0 1 0 9h-90a4.5 4.5 0 0 1-4.5-4.5Zm0 17a4.5 4.5 0 0 1 4.5-4.5h90a4.5 4.5 0 0 1 0 9h-90a4.5 4.5 0 0 1-4.5-4.5Zm4.5 12.5a4.5 4.5 0 0 0 0 9h90a4.5 4.5 0 0 0 0-9h-90Z"/>
    <path class="cls-10" d="M514.5 23c-3.04 0-5.5 2.46-5.5 5.5h2c0-1.93 1.57-3.5 3.5-3.5v-2Zm90 0h-90v2h90v-2Zm5.5 5.5c0-3.04-2.46-5.5-5.5-5.5v2c1.93 0 3.5 1.57 3.5 3.5h2Zm-5.5 5.5c3.04 0 5.5-2.46 5.5-5.5h-2c0 1.93-1.57 3.5-3.5 3.5v2Zm-90 0h90v-2h-90v2Zm-5.5-5.5c0 3.04 2.46 5.5 5.5 5.5v-2c-1.93 0-3.5-1.57-3.5-3.5h-2Zm5.5 11.5c-3.04 0-5.5 2.46-5.5 5.5h2c0-1.93 1.57-3.5 3.5-3.5v-2Zm90 0h-90v2h90v-2Zm5.5 5.5c0-3.04-2.46-5.5-5.5-5.5v2c1.93 0 3.5 1.57 3.5 3.5h2Zm-5.5 5.5c3.04 0 5.5-2.46 5.5-5.5h-2c0 1.93-1.57 3.5-3.5 3.5v2Zm-90 0h90v-2h-90v2Zm-5.5-5.5c0 3.04 2.46 5.5 5.5 5.5v-2c-1.93 0-3.5-1.57-3.5-3.5h-2Zm2 17c0-1.93 1.57-3.5 3.5-3.5v-2c-3.04 0-5.5 2.46-5.5 5.5h2Zm3.5 3.5c-1.93 0-3.5-1.57-3.5-3.5h-2c0 3.04 2.46 5.5 5.5 5.5v-2Zm90 0h-90v2h90v-2Zm3.5-3.5c0 1.93-1.57 3.5-3.5 3.5v2c3.04 0 5.5-2.46 5.5-5.5h-2Zm-3.5-3.5c1.93 0 3.5 1.57 3.5 3.5h2c0-3.04-2.46-5.5-5.5-5.5v2Zm-90 0h90v-2h-90v2Z"/>
    <path class="cls-4" d="M510 115.5a4.5 4.5 0 0 1 4.5-4.5h90a4.5 4.5 0 0 1 0 9h-90a4.5 4.5 0 0 1-4.5-4.5Zm0 17a4.5 4.5 0 0 1 4.5-4.5h90a4.5 4.5 0 0 1 0 9h-90a4.5 4.5 0 0 1-4.5-4.5Zm4.5 12.5a4.5 4.5 0 0 0 0 9h90a4.5 4.5 0 0 0 0-9h-90Z"/>
    <path class="cls-10" d="M514.5 110c-3.04 0-5.5 2.46-5.5 5.5h2c0-1.93 1.57-3.5 3.5-3.5v-2Zm90 0h-90v2h90v-2Zm5.5 5.5c0-3.04-2.46-5.5-5.5-5.5v2c1.93 0 3.5 1.57 3.5 3.5h2Zm-5.5 5.5c3.04 0 5.5-2.46 5.5-5.5h-2c0 1.93-1.57 3.5-3.5 3.5v2Zm-90 0h90v-2h-90v2Zm-5.5-5.5c0 3.04 2.46 5.5 5.5 5.5v-2c-1.93 0-3.5-1.57-3.5-3.5h-2Zm5.5 11.5c-3.04 0-5.5 2.46-5.5 5.5h2c0-1.93 1.57-3.5 3.5-3.5v-2Zm90 0h-90v2h90v-2Zm5.5 5.5c0-3.04-2.46-5.5-5.5-5.5v2c1.93 0 3.5 1.57 3.5 3.5h2Zm-5.5 5.5c3.04 0 5.5-2.46 5.5-5.5h-2c0 1.93-1.57 3.5-3.5 3.5v2Zm-90 0h90v-2h-90v2Zm-5.5-5.5c0 3.04 2.46 5.5 5.5 5.5v-2c-1.93 0-3.5-1.57-3.5-3.5h-2Zm2 17c0-1.93 1.57-3.5 3.5-3.5v-2c-3.04 0-5.5 2.46-5.5 5.5h2Zm3.5 3.5c-1.93 0-3.5-1.57-3.5-3.5h-2c0 3.04 2.46 5.5 5.5 5.5v-2Zm90 0h-90v2h90v-2Zm3.5-3.5c0 1.93-1.57 3.5-3.5 3.5v2c3.04 0 5.5-2.46 5.5-5.5h-2Zm-3.5-3.5c1.93 0 3.5 1.57 3.5 3.5h2c0-3.04-2.46-5.5-5.5-5.5v2Zm-90 0h90v-2h-90v2Z"/>
    <path class="cls-4" d="M510 202.5a4.5 4.5 0 0 1 4.5-4.5h90a4.5 4.5 0 0 1 0 9h-90a4.5 4.5 0 0 1-4.5-4.5Zm0 17a4.5 4.5 0 0 1 4.5-4.5h90a4.5 4.5 0 0 1 0 9h-90a4.5 4.5 0 0 1-4.5-4.5Zm4.5 12.5a4.5 4.5 0 0 0 0 9h90a4.5 4.5 0 0 0 0-9h-90Z"/>
    <path class="cls-10" d="M514.5 197c-3.04 0-5.5 2.46-5.5 5.5h2c0-1.93 1.57-3.5 3.5-3.5v-2Zm90 0h-90v2h90v-2Zm5.5 5.5c0-3.04-2.46-5.5-5.5-5.5v2c1.93 0 3.5 1.57 3.5 3.5h2Zm-5.5 5.5c3.04 0 5.5-2.46 5.5-5.5h-2c0 1.93-1.57 3.5-3.5 3.5v2Zm-90 0h90v-2h-90v2Zm-5.5-5.5c0 3.04 2.46 5.5 5.5 5.5v-2c-1.93 0-3.5-1.57-3.5-3.5h-2Zm5.5 11.5c-3.04 0-5.5 2.46-5.5 5.5h2c0-1.93 1.57-3.5 3.5-3.5v-2Zm90 0h-90v2h90v-2Zm5.5 5.5c0-3.04-2.46-5.5-5.5-5.5v2c1.93 0 3.5 1.57 3.5 3.5h2Zm-5.5 5.5c3.04 0 5.5-2.46 5.5-5.5h-2c0 1.93-1.57 3.5-3.5 3.5v2Zm-90 0h90v-2h-90v2Zm-5.5-5.5c0 3.04 2.46 5.5 5.5 5.5v-2c-1.93 0-3.5-1.57-3.5-3.5h-2Zm2 17c0-1.93 1.57-3.5 3.5-3.5v-2c-3.04 0-5.5 2.46-5.5 5.5h2Zm3.5 3.5c-1.93 0-3.5-1.57-3.5-3.5h-2c0 3.04 2.46 5.5 5.5 5.5v-2Zm90 0h-90v2h90v-2Zm3.5-3.5c0 1.93-1.57 3.5-3.5 3.5v2c3.04 0 5.5-2.46 5.5-5.5h-2Zm-3.5-3.5c1.93 0 3.5 1.57 3.5 3.5h2c0-3.04-2.46-5.5-5.5-5.5v2Zm-90 0h90v-2h-90v2Z"/>
    <path class="cls-4" d="M510 289.5c0-2.48 2.02-4.5 4.5-4.5h90c2.48 0 4.5 2.02 4.5 4.5s-2.02 4.5-4.5 4.5h-90c-2.48 0-4.5-2.02-4.5-4.5Zm0 17c0-2.48 2.02-4.5 4.5-4.5h90c2.48 0 4.5 2.02 4.5 4.5s-2.02 4.5-4.5 4.5h-90c-2.48 0-4.5-2.02-4.5-4.5Zm4.5 12.5c-2.48 0-4.5 2.02-4.5 4.5s2.02 4.5 4.5 4.5h90c2.48 0 4.5-2.02 4.5-4.5s-2.02-4.5-4.5-4.5h-90Z"/>
    <path class="cls-10" d="M514.5 284c-3.04 0-5.5 2.46-5.5 5.5h2c0-1.93 1.57-3.5 3.5-3.5v-2Zm90 0h-90v2h90v-2Zm5.5 5.5c0-3.04-2.46-5.5-5.5-5.5v2c1.93 0 3.5 1.57 3.5 3.5h2Zm-5.5 5.5c3.04 0 5.5-2.46 5.5-5.5h-2c0 1.93-1.57 3.5-3.5 3.5v2Zm-90 0h90v-2h-90v2Zm-5.5-5.5c0 3.04 2.46 5.5 5.5 5.5v-2c-1.93 0-3.5-1.57-3.5-3.5h-2Zm5.5 11.5c-3.04 0-5.5 2.46-5.5 5.5h2c0-1.93 1.57-3.5 3.5-3.5v-2Zm90 0h-90v2h90v-2Zm5.5 5.5c0-3.04-2.46-5.5-5.5-5.5v2c1.93 0 3.5 1.57 3.5 3.5h2Zm-5.5 5.5c3.04 0 5.5-2.46 5.5-5.5h-2c0 1.93-1.57 3.5-3.5 3.5v2Zm-90 0h90v-2h-90v2Zm-5.5-5.5c0 3.04 2.46 5.5 5.5 5.5v-2c-1.93 0-3.5-1.57-3.5-3.5h-2Zm2 17c0-1.93 1.57-3.5 3.5-3.5v-2c-3.04 0-5.5 2.46-5.5 5.5h2Zm3.5 3.5c-1.93 0-3.5-1.57-3.5-3.5h-2c0 3.04 2.46 5.5 5.5 5.5v-2Zm90 0h-90v2h90v-2Zm3.5-3.5c0 1.93-1.57 3.5-3.5 3.5v2c3.04 0 5.5-2.46 5.5-5.5h-2Zm-3.5-3.5c1.93 0 3.5 1.57 3.5 3.5h2c0-3.04-2.46-5.5-5.5-5.5v2Zm-90 0h90v-2h-90v2Z"/>
    <path class="cls-11" d="M620.5 24a2.5 2.5 0 0 0 0 5h6a2.5 2.5 0 0 0 0-5h-6Zm0 10a2.5 2.5 0 0 0 0 5h6a2.5 2.5 0 0 0 0-5h-6ZM618 46c0-1.66 1.34-3 3-3h5c1.66 0 3 1.34 3 3s-1.34 3-3 3h-5c-1.66 0-3-1.34-3-3Zm2.5 7a2.5 2.5 0 0 0 0 5h6a2.5 2.5 0 0 0 0-5h-6ZM618 64.5a2.5 2.5 0 0 1 2.5-2.5h6a2.5 2.5 0 0 1 0 5h-6a2.5 2.5 0 0 1-2.5-2.5ZM635.5 24a2.5 2.5 0 0 0 0 5h6a2.5 2.5 0 0 0 0-5h-6Zm0 10a2.5 2.5 0 0 0 0 5h6a2.5 2.5 0 0 0 0-5h-6ZM633 46c0-1.66 1.34-3 3-3h5c1.66 0 3 1.34 3 3s-1.34 3-3 3h-5c-1.66 0-3-1.34-3-3Zm2.5 7a2.5 2.5 0 0 0 0 5h6a2.5 2.5 0 0 0 0-5h-6ZM633 64.5a2.5 2.5 0 0 1 2.5-2.5h6a2.5 2.5 0 0 1 0 5h-6a2.5 2.5 0 0 1-2.5-2.5ZM620.5 111a2.5 2.5 0 0 0 0 5h6a2.5 2.5 0 0 0 0-5h-6Zm0 10a2.5 2.5 0 0 0 0 5h6a2.5 2.5 0 0 0 0-5h-6Zm-2.5 12c0-1.66 1.34-3 3-3h5c1.66 0 3 1.34 3 3s-1.34 3-3 3h-5c-1.66 0-3-1.34-3-3Zm2.5 7a2.5 2.5 0 0 0 0 5h6a2.5 2.5 0 0 0 0-5h-6Zm-2.5 11.5a2.5 2.5 0 0 1 2.5-2.5h6a2.5 2.5 0 0 1 0 5h-6a2.5 2.5 0 0 1-2.5-2.5Zm17.5-40.5a2.5 2.5 0 0 0 0 5h6a2.5 2.5 0 0 0 0-5h-6Zm0 10a2.5 2.5 0 0 0 0 5h6a2.5 2.5 0 0 0 0-5h-6Zm-2.5 12c0-1.66 1.34-3 3-3h5c1.66 0 3 1.34 3 3s-1.34 3-3 3h-5c-1.66 0-3-1.34-3-3Zm2.5 7a2.5 2.5 0 0 0 0 5h6a2.5 2.5 0 0 0 0-5h-6Zm-2.5 11.5a2.5 2.5 0 0 1 2.5-2.5h6a2.5 2.5 0 0 1 0 5h-6a2.5 2.5 0 0 1-2.5-2.5ZM620.5 198a2.5 2.5 0 0 0 0 5h6a2.5 2.5 0 0 0 0-5h-6Zm0 10a2.5 2.5 0 0 0 0 5h6a2.5 2.5 0 0 0 0-5h-6Zm-2.5 12c0-1.66 1.34-3 3-3h5c1.66 0 3 1.34 3 3s-1.34 3-3 3h-5c-1.66 0-3-1.34-3-3Zm2.5 7a2.5 2.5 0 0 0 0 5h6a2.5 2.5 0 0 0 0-5h-6Zm-2.5 11.5a2.5 2.5 0 0 1 2.5-2.5h6a2.5 2.5 0 0 1 0 5h-6a2.5 2.5 0 0 1-2.5-2.5Zm17.5-40.5a2.5 2.5 0 0 0 0 5h6a2.5 2.5 0 0 0 0-5h-6Zm0 10a2.5 2.5 0 0 0 0 5h6a2.5 2.5 0 0 0 0-5h-6Zm-2.5 12c0-1.66 1.34-3 3-3h5c1.66 0 3 1.34 3 3s-1.34 3-3 3h-5c-1.66 0-3-1.34-3-3Zm2.5 7a2.5 2.5 0 0 0 0 5h6a2.5 2.5 0 0 0 0-5h-6Zm-2.5 11.5a2.5 2.5 0 0 1 2.5-2.5h6a2.5 2.5 0 0 1 0 5h-6a2.5 2.5 0 0 1-2.5-2.5ZM620.5 285a2.5 2.5 0 0 0 0 5h6a2.5 2.5 0 0 0 0-5h-6Zm0 10a2.5 2.5 0 0 0 0 5h6a2.5 2.5 0 0 0 0-5h-6Zm-2.5 12c0-1.66 1.34-3 3-3h5c1.66 0 3 1.34 3 3s-1.34 3-3 3h-5c-1.66 0-3-1.34-3-3Zm2.5 7a2.5 2.5 0 0 0 0 5h6a2.5 2.5 0 0 0 0-5h-6Zm-2.5 11.5a2.5 2.5 0 0 1 2.5-2.5h6a2.5 2.5 0 0 1 0 5h-6a2.5 2.5 0 0 1-2.5-2.5Zm17.5-40.5a2.5 2.5 0 0 0 0 5h6a2.5 2.5 0 0 0 0-5h-6Zm0 10a2.5 2.5 0 0 0 0 5h6a2.5 2.5 0 0 0 0-5h-6Zm-2.5 12c0-1.66 1.34-3 3-3h5c1.66 0 3 1.34 3 3s-1.34 3-3 3h-5c-1.66 0-3-1.34-3-3Zm2.5 7a2.5 2.5 0 0 0 0 5h6a2.5 2.5 0 0 0 0-5h-6Zm-2.5 11.5a2.5 2.5 0 0 1 2.5-2.5h6a2.5 2.5 0 0 1 0 5h-6a2.5 2.5 0 0 1-2.5-2.5Z"/>
    <path class="cls-5" d="M446 85h212c2.21 0 4 1.79 4 4s-1.79 4-4 4H446c-2.21 0-4-1.79-4-4s1.79-4 4-4ZM446 172h212c2.21 0 4 1.79 4 4s-1.79 4-4 4H446c-2.21 0-4-1.79-4-4s1.79-4 4-4ZM446 259h212c2.21 0 4 1.79 4 4s-1.79 4-4 4H446c-2.21 0-4-1.79-4-4s1.79-4 4-4Z"/>
  </g>
  <rect class="cls-5" x="604.95" y="278.32" width="99.1" height="136.68" rx="8" ry="8"/>
  <rect class="cls-18" x="589" y="284" width="131" height="37.97" rx="8" ry="8"/>
  <rect class="cls-18" x="589" y="326" width="131" height="36.88" rx="8" ry="8"/>
  <rect class="cls-18" x="589" y="367" width="131" height="36.88" rx="8" ry="8"/>
  <rect class="cls-18" x="622.03" y="298.93" width="68.35" height="7.59" rx="3.8" ry="3.8"/>
  <rect class="cls-18" x="622.03" y="340.15" width="68.35" height="7.59" rx="3.8" ry="3.8"/>
  <rect class="cls-18" x="622.03" y="382.46" width="68.35" height="7.59" rx="3.8" ry="3.8"/>
  <path class="cls-10" d="M702.93 299.28v7.38a2.279 2.279 0 1 1-4.56 0v-7.38a2.279 2.279 0 1 1 4.56 0ZM702.93 341.28v7.38a2.279 2.279 0 1 1-4.56 0v-7.38a2.279 2.279 0 1 1 4.56 0ZM702.93 382.28v7.38a2.279 2.279 0 1 1-4.56 0v-7.38a2.279 2.279 0 1 1 4.56 0ZM709.77 299.28v7.38a2.279 2.279 0 1 1-4.56 0v-7.38a2.279 2.279 0 1 1 4.56 0ZM709.77 341.28v7.38a2.279 2.279 0 1 1-4.56 0v-7.38a2.279 2.279 0 1 1 4.56 0ZM709.77 382.28v7.38a2.279 2.279 0 1 1-4.56 0v-7.38a2.279 2.279 0 1 1 4.56 0Z"/>
  <ellipse class="cls-5" cx="607.79" cy="303.27" rx="8.54" ry="8.68"/>
  <ellipse class="cls-5" cx="607.79" cy="344.49" rx="8.54" ry="8.68"/>
  <ellipse class="cls-5" cx="607.79" cy="386.8" rx="8.54" ry="8.68"/>
  <rect class="cls-3" x="1" y="346" width="220" height="69" rx="5" ry="5"/>
  <rect class="cls-9" x="1" y="346" width="175" height="69" rx="5" ry="5"/>
  <rect class="cls-2" x="32" y="305" width="180" height="41" rx="5" ry="5"/>
  <path class="cls-15" d="M212 346H37c-2.76 0-5-2.24-5-5v-31c0-2.76 2.24-5 5-5h166.5"/>
  <rect class="cls-9" x="32" y="305" width="144" height="41" rx="5" ry="5"/>
  <path class="cls-9" d="M1 355h163c2.76 0 5 2.24 5 5v41c0 2.76-2.24 5-5 5H1v-51ZM32 310h133c2.76 0 5 2.24 5 5v21c0 2.76-2.24 5-5 5H32v-31Z"/>
  <circle cx="572.5" cy="291.5" r="1.5" style="fill:#fefefe"/>
  <path class="cls-8" d="M155.84 280.64c12.53 0 22.68-10.15 22.68-22.68s-10.15-22.68-22.68-22.68-22.68 10.15-22.68 22.68 10.15 22.68 22.68 22.68Zm0-10.08c6.96 0 12.6-5.64 12.6-12.6s-5.64-12.6-12.6-12.6-12.6 5.64-12.6 12.6 5.64 12.6 12.6 12.6Z"/>
  <path class="cls-10" d="M177.52 257.96c0 11.97-9.71 21.68-21.68 21.68v2c13.08 0 23.68-10.6 23.68-23.68h-2Zm-21.68-21.68c11.97 0 21.68 9.71 21.68 21.68h2c0-13.08-10.6-23.68-23.68-23.68v2Zm-21.68 21.68c0-11.97 9.71-21.68 21.68-21.68v-2c-13.08 0-23.68 10.6-23.68 23.68h2Zm21.68 21.68c-11.97 0-21.68-9.71-21.68-21.68h-2c0 13.08 10.6 23.68 23.68 23.68v-2Zm11.6-21.68c0 6.41-5.19 11.6-11.6 11.6v2c7.51 0 13.6-6.09 13.6-13.6h-2Zm-11.6-11.6c6.41 0 11.6 5.19 11.6 11.6h2c0-7.51-6.09-13.6-13.6-13.6v2Zm-11.6 11.6c0-6.41 5.19-11.6 11.6-11.6v-2c-7.51 0-13.6 6.09-13.6 13.6h2Zm11.6 11.6c-6.41 0-11.6-5.19-11.6-11.6h-2c0 7.51 6.09 13.6 13.6 13.6v-2Z"/>
  <path class="cls-9" d="M71 226c0-2.76 2.24-5 5-5h69c2.76 0 5 2.24 5 5v49c0 16.57-13.43 30-30 30h-19c-16.57 0-30-13.43-30-30v-49Z"/>
  
  <path class="cls-17" d="M253.24 155.5c2.45-10.77 13.38-19.5 24.43-19.5h331c11.05 0 18.02 8.73 15.57 19.5L570 394.42H199l54.24-238.92Z"/>
  <path class="cls-17" d="M244.24 155.5c2.45-10.77 13.38-19.5 24.43-19.5h331c11.05 0 18.02 8.73 15.57 19.5L561 394.42H190l54.24-238.92Z"/>
  <path class="cls-13" d="M285.5 136h-16.83c-11.05 0-21.98 8.73-24.43 19.5L190 394.42h371l54.24-238.92c2.45-10.77-4.53-19.5-15.57-19.5H340m-41.5 0h24"/>
  <path class="cls-17" d="M268.23 146.73h327c5.52 0 9.01 4.37 7.79 9.75l-49.15 216.49c-1.22 5.39-6.69 9.75-12.21 9.75h-327c-5.52 0-9.01-4.37-7.79-9.75l49.15-216.49c1.22-5.39 6.69-9.75 12.21-9.75Z"/>
  <path class="cls-4" d="m363.23 146.73-53.57 236h-95c-5.52 0-9.01-4.37-7.79-9.75l49.15-216.49c1.22-5.39 6.69-9.75 12.21-9.75h95Z"/>
  <path class="cls-10" d="M363.23 146.73h1l.22-.98h-1l-.22.98Zm-53.57 236-.22.98h1l.22-.98h-1Zm52.57-236-53.57 236h2l53.57-236h-2Zm-52.35 235.02h-95l-.44 1.95h95l.44-1.95Zm-95 0c-4.97 0-8.11-3.93-7.01-8.78h-2c-1.35 5.92 2.49 10.73 8.57 10.73l.44-1.95Zm-7.01-8.78 49.15-216.49h-2l-49.15 216.49h2Zm49.15-216.49c1.1-4.85 6.02-8.78 10.99-8.78l.44-1.95c-6.07 0-12.09 4.8-13.43 10.73h2Zm10.99-8.78h95l.44-1.95h-95l-.44 1.95Z"/>
  <path class="cls-19" d="M597.7 179.88h-347l5.31-23.4c1.22-5.39 6.69-9.75 12.21-9.75h327c5.52 0 9.01 4.37 7.79 9.75l-5.31 23.4Z"/>
  <path class="cls-10" d="m597.7 179.88-.22.98h1l.22-.98h-1Zm-347 0h-1l-.22.98h1l.22-.98Zm347.22-.97h-347l-.44 1.95h347l.44-1.95Zm-346.22.97 5.31-23.4h-2l-5.31 23.4h2Zm5.31-23.4c1.1-4.85 6.02-8.78 10.99-8.78l.44-1.95c-6.07 0-12.09 4.8-13.43 10.73h2ZM268 147.7h327l.44-1.95H268.45l-.44 1.95Zm327 0c4.97 0 8.11 3.93 7.01 8.78h2c1.35-5.92-2.49-10.73-8.57-10.73l-.44 1.95Zm7.01 8.78-5.31 23.4h2l5.31-23.4h-2Z"/>
  <path class="cls-9" d="M372.94 196.46h88c2.76 0 4.5 2.18 3.89 4.88l-13.28 58.51c-.61 2.69-3.35 4.88-6.11 4.88h-88c-2.76 0-4.5-2.18-3.89-4.88l13.28-58.51c.61-2.69 3.35-4.88 6.11-4.88ZM233.18 349.57h64c2.76 0 4.5 2.18 3.89 4.88l-2.88 12.68c-.61 2.69-3.35 4.88-6.11 4.88h-64c-2.76 0-4.5-2.18-3.89-4.88l2.88-12.68c.61-2.69 3.35-4.88 6.11-4.88ZM247.62 279.35h35c1.93 0 3.15 1.53 2.73 3.41-.43 1.89-2.34 3.41-4.27 3.41h-35c-1.93 0-3.15-1.53-2.73-3.41.43-1.89 2.34-3.41 4.27-3.41ZM243.86 295.93h57c1.93 0 3.15 1.53 2.73 3.41-.43 1.89-2.34 3.41-4.27 3.41h-57c-1.93 0-3.15-1.53-2.73-3.41.43-1.89 2.34-3.41 4.27-3.41ZM240.1 312.51h52c1.93 0 3.15 1.53 2.73 3.41-.43 1.89-2.34 3.41-4.27 3.41h-52c-1.93 0-3.15-1.53-2.73-3.41.43-1.89 2.34-3.41 4.27-3.41ZM425.34 278.38h183c2.76 0 4.5 2.18 3.89 4.88l-19.04 83.87c-.61 2.69-3.35 4.88-6.11 4.88h-183c-2.76 0-4.5-2.18-3.89-4.88l19.04-83.87c.61-2.69 3.35-4.88 6.11-4.88Z"/>
  <path class="cls-3" d="M432.69 290.08h68c2.76 0 4.5 2.18 3.89 4.88l-13.95 61.44c-.61 2.69-3.35 4.88-6.11 4.88h-68c-2.76 0-4.5-2.18-3.89-4.88l13.95-61.44c.61-2.69 3.35-4.88 6.11-4.88Z"/>
  <path class="cls-9" d="M354.34 278.38h47c2.76 0 4.5 2.18 3.89 4.88l-6.86 30.23c-.61 2.69-3.35 4.88-6.11 4.88h-47c-2.76 0-4.5-2.18-3.89-4.88l6.86-30.23c.61-2.69 3.35-4.88 6.11-4.88ZM342.17 332.01h47c2.76 0 4.5 2.18 3.89 4.88l-6.86 30.23c-.61 2.69-3.35 4.88-6.11 4.88h-47c-2.76 0-4.5-2.18-3.89-4.88l6.86-30.23c.61-2.69 3.35-4.88 6.11-4.88Z"/>
  <path class="cls-3" d="M484.94 196.46h88c2.76 0 4.5 2.18 3.89 4.88l-13.28 58.51c-.61 2.69-3.35 4.88-6.11 4.88h-88c-2.76 0-4.5-2.18-3.89-4.88l13.28-58.51c.61-2.69 3.35-4.88 6.11-4.88Z"/>
  <ellipse class="cls-10" cx="274.86" cy="163.79" rx="6.08" ry="4.85" transform="rotate(-38.61 274.816 163.78)"/>
  <ellipse class="cls-10" cx="295.86" cy="163.79" rx="6.08" ry="4.85" transform="rotate(-38.61 295.81 163.779)"/>
  <ellipse class="cls-10" cx="316.86" cy="163.79" rx="6.08" ry="4.85" transform="rotate(-38.61 316.817 163.782)"/>
  <g style="mask:url(#mask)">
    <ellipse class="cls-9" cx="292.19" cy="230.59" rx="38.68" ry="30.88" transform="rotate(-38.61 292.14 230.569)"/>
    <path class="cls-7" d="M286.2 212.75s2.1-6.33-3.53-10.19c-5.62-3.86-10.52-2.21-12.04 2.87-1.52 5.07.7 9.45 4.48 9.54 3.78.09 5.9-.03 7.29.34 1.4.37 3.79-2.55 3.79-2.55Z"/>
    <path class="cls-7" d="M283.7 216.04s-2.68.09-2.78-.51c-.1-.6 4.61-5.06 5.79-5.3 1.18-.25 1.47 1.51 1.17 2.27-.29.77-4.18 3.54-4.18 3.54Z"/>
    <path class="cls-7" d="M296.76 209.72s-5.12-.96-10.58 2.44c-5.45 3.4-7.67 6.01-11.68 15.57-4.01 9.57-6.85 19.1-14.11 23.52-7.25 4.42-22.58 7.14-17.55 20.77 5.03 13.62 20.99 2.75 20.99 2.75l9.88-7.63 5.18-7.64 17.88-49.78Z"/>
    <path class="cls-9" d="M275.84 255.99c-8.9-.95-13.41 1.72-14.56 3.18l5.57 9.52h24.42c4.07-1.19 12.01-4.13 11.21-6.35-1-2.78-15.51-5.16-26.64-6.35Z"/>
    <path class="cls-7" d="m282.43 239.06-7.08 18.6s2.31 4.45 8 5.12c5.7.67 9.14-3.22 9.14-3.22l4.99-16.69-15.05-3.81Z"/>
    <path class="cls-8" d="M315.18 219.14h-26.43l-5.05 22.26a14.086 14.086 0 0 0-.23 1.26c-.03.21-.05.42-.06.63-.02.21-.02.42-.03.62s0 .41 0 .62c0 .21.02.41.03.61a12.248 12.248 0 0 0 .17 1.19c.04.2.08.39.13.58.05.19.1.38.16.57.06.18.12.37.2.55s.14.36.23.53c.08.17.17.35.26.52.09.17.19.34.29.5.1.16.2.32.32.48.11.16.23.31.34.46a7.737 7.737 0 0 0 .77.85l.42.39c.15.13.3.25.45.36.15.12.31.23.47.34.16.11.33.21.49.31.17.1.34.19.51.28.17.09.35.18.54.26.18.08.37.16.55.23.19.07.38.14.57.2s.39.12.59.17c.2.05.4.1.6.14.2.04.41.08.61.11.21.03.41.06.63.08.21.02.42.04.64.05.21.01.43.02.64.02.22 0 .43 0 .65-.02.22-.01.44-.03.66-.05.22-.02.44-.05.66-.08.22-.03.44-.07.66-.11.22-.04.44-.09.67-.14.22-.05.44-.11.66-.17a16.567 16.567 0 0 0 1.32-.43c.22-.08.43-.17.65-.26.22-.09.43-.18.64-.28.21-.1.42-.2.64-.31.21-.11.42-.22.62-.34.21-.12.41-.24.61-.36l.6-.39c.2-.13.39-.27.58-.41.19-.14.38-.29.57-.44.19-.15.37-.3.55-.46.18-.16.36-.32.53-.48.17-.16.35-.33.51-.5.17-.17.33-.34.49-.52.16-.18.32-.35.47-.53.15-.18.3-.36.44-.55l.42-.57c.14-.19.27-.38.39-.58.13-.19.25-.39.37-.59.12-.2.23-.4.34-.6.11-.2.21-.4.31-.61.1-.2.19-.41.28-.62s.17-.41.25-.62c.08-.21.15-.42.22-.63.07-.21.13-.42.19-.63.06-.21.11-.42.16-.63l5.05-22.26Z"/>
    <path class="cls-15" d="m315.18 219.14-5.05 22.26c-.05.21-.1.42-.16.63-.06.21-.12.42-.19.63-.07.21-.14.42-.22.63-.08.21-.16.42-.25.62s-.18.41-.28.62c-.1.21-.2.41-.31.61-.11.2-.22.4-.34.6-.12.2-.24.4-.37.59-.13.2-.26.39-.39.58l-.42.57c-.14.18-.29.37-.44.55-.15.18-.31.36-.47.53-.16.17-.32.35-.49.52-.17.17-.34.34-.51.5-.17.16-.35.32-.53.48-.18.16-.36.31-.55.46-.19.15-.38.29-.57.44-.19.14-.39.28-.58.41l-.6.39c-.2.13-.41.25-.61.36-.21.12-.41.23-.62.34-.21.11-.42.21-.63.31-.21.1-.43.19-.64.28-.22.09-.43.18-.65.26-.22.08-.44.16-.66.23-.22.07-.44.14-.66.2-.22.06-.44.12-.66.17-.22.05-.44.1-.66.14-.22.04-.44.08-.66.11-.22.03-.44.06-.66.08s-.44.04-.66.05c-.22.01-.44.02-.65.02h0c-.22 0-.43 0-.64-.02-.21-.01-.42-.03-.64-.05-.21-.02-.42-.05-.63-.08-.21-.03-.41-.07-.61-.11-.2-.04-.4-.09-.6-.14-.2-.05-.39-.11-.59-.17s-.38-.13-.57-.2"/>
    <path class="cls-13" d="M298.4 240.98c-.24 1.07.6 1.94 1.88 1.94s2.52-.87 2.76-1.94"/>
    <path class="cls-11" d="M296.76 236.56c.11-.49.61-.89 1.12-.89s.82.4.71.89c-.11.49-.61.89-1.12.89s-.83-.4-.71-.89ZM305.92 236.56c.11-.49.61-.89 1.12-.89s.83.4.71.89c-.11.49-.61.89-1.12.89s-.83-.4-.71-.89Z"/>
    <path class="cls-7" d="M295.36 224.26s3.14 6 7.87 6.72c4.73.71 6.4-1.56 5.66-2.39s1.3 2.28 6.66.56c5.36-1.72 4.11-4.66 2.95-6.11-1.15-1.44 1.07 1.31 2.54 1.22 1.48-.09 5.42-7.66 2.63-11.61-2.79-3.95-7.83-2.75-7.83-2.75s.04-2.98-6.44-3.36c-6.48-.38-8.14.71-12.04 3.36s-7.73 12.28-10.94 19.24c-3.22 6.96-.38 8.55-.38 8.55s5.49-1.8 7.44-5.19c1.95-3.39 1.87-8.25 1.87-8.25Z"/>
    <path class="cls-7" d="M290.1 228.79s7.26-18.3 8.61-19.25c1.35-.96 3.44-.9 3.44-.9s.57-.69 1.58-1.25c1.01-.55 2.46-.96 2.46-.96s-4.02-2.56-8.19-1.21c-4.16 1.34-5.44 4.53-6.58 6.76-1.15 2.23-7.3 16.87-7.3 16.87l5.97-.06Z"/>
    <path class="cls-7" d="M291.59 235.25c.99-4.37-1.16-7.91-4.81-7.91s-7.41 3.54-8.4 7.91c-.99 4.37 1.16 7.91 4.81 7.91s7.41-3.54 8.4-7.91Z"/>
    <path class="cls-7" d="M288.74 235.84c.7-3.07-.82-5.57-3.39-5.57s-5.21 2.49-5.91 5.57c-.7 3.07.82 5.56 3.39 5.56s5.22-2.49 5.91-5.56Z"/>
    <path class="cls-10" d="M284.26 238.18c.05-.23.19-.45.38-.61.19-.16.42-.25.64-.25s.41.09.53.25c.12.16.16.38.1.61-.05.23-.19.45-.38.61-.19.16-.42.25-.64.25s-.41-.09-.53-.25a.708.708 0 0 1-.1-.61Zm-2.25.79c-.18-.04-.35-.1-.51-.19-.14-.08-.26-.18-.37-.29-.1-.11-.18-.23-.23-.37-.05-.13-.09-.28-.1-.43-.01-.15 0-.31.03-.47 0-.05.04-.1.08-.13.02-.02.04-.03.06-.04.02 0 .04-.01.07-.01h.98c.05 0 .1.01.14.04.04.04.07.08.09.13.01.07.04.14.08.2a.7.7 0 0 0 .14.16c.06.05.13.08.21.1a1.36 1.36 0 0 0 .66 0c.1-.02.19-.06.28-.11.08-.04.14-.1.2-.18.05-.07.09-.15.11-.23.01-.06.02-.12.01-.17 0-.05-.02-.1-.05-.14-.05-.08-.16-.15-.3-.22a7.04 7.04 0 0 0-.65-.21c-.25-.06-.49-.15-.71-.27a1.51 1.51 0 0 1-.26-.18.997.997 0 0 1-.2-.21.946.946 0 0 1-.14-.24.947.947 0 0 1-.07-.29 1.93 1.93 0 0 1 0-.34c.01-.13.03-.25.06-.38a2.271 2.271 0 0 1 .48-.98c.12-.14.25-.27.39-.39.15-.12.31-.21.48-.29a2.722 2.722 0 0 1 1.14-.24c.2 0 .4.02.59.07.17.04.33.11.47.21.13.09.25.19.35.31.09.11.17.24.22.38.05.13.08.26.1.4.02.13 0 .26-.02.4-.01.05-.04.1-.08.14-.02.02-.04.03-.06.04-.02 0-.04.01-.07.01h-1.03s-.1-.01-.13-.04a.255.255 0 0 1-.08-.12c0-.06-.01-.12-.04-.17a.407.407 0 0 0-.12-.14.524.524 0 0 0-.18-.1.986.986 0 0 0-.24-.03c-.09 0-.19.01-.28.03-.08.02-.15.05-.23.1-.07.04-.12.1-.17.17a.65.65 0 0 0-.09.23c-.02.08-.02.16 0 .23s.07.13.12.18c.09.06.18.11.28.15.12.05.28.1.47.15.2.04.39.1.58.17.15.06.3.13.43.21.11.07.21.16.29.26.08.1.14.21.17.33.04.12.05.26.05.39 0 .16-.02.32-.06.48-.15 0-.31.03-.46.09-.15.06-.29.15-.42.25-.13.11-.24.23-.33.37a1.404 1.404 0 0 0-.22.76c0 .1.02.19.04.27-.03.02-.07.03-.1.05-.19.08-.39.14-.58.18a3.493 3.493 0 0 1-1.28 0Z"/>
    <ellipse class="cls-16" cx="292.19" cy="230.59" rx="38.68" ry="30.88" transform="rotate(-38.61 292.14 230.569)"/>
  </g>
  <ellipse class="cls-9" cx="300.35" cy="351.03" rx="6.08" ry="4.85" transform="rotate(-38.61 300.304 351.005)"/>
  <path class="cls-3" d="M392 213.15h45.22c2.76 0 4.29 2.17 3.4 4.85l-9.22 28.02c-.88 2.68-3.83 4.85-6.6 4.85h-45.22c-2.76 0-4.29-2.17-3.4-4.85L385.4 218c.88-2.68 3.83-4.85 6.6-4.85Z"/>
  <path class="cls-8" d="M388.84 210.11c-2.76 0-5.49 2.18-6.11 4.88l-5.19 22.86v.02l-1.89 8.32c-.61 2.69 1.13 4.88 3.89 4.88h45.22c2.76 0 5.49-2.18 6.11-4.88l5.19-22.86c.61-2.69-1.13-4.88-3.89-4.88h-30.78l.79-3.47c.61-2.69-1.13-4.88-3.89-4.88h-9.45Z"/>
  <path class="cls-10" d="M377.54 237.88Zm53.33 8.32Zm5.19-22.86Zm-34.67-4.88h-1c-.06.26 0 .51.14.69s.38.29.64.29l.22-.98Zm.79-3.47Zm-18.45 0c.49-2.15 2.68-3.9 4.89-3.9l.44-1.95c-3.31 0-6.6 2.62-7.33 5.85h2Zm-5.19 22.86 5.19-22.86h-2l-5.19 22.86h2Zm0 .02v-.02h-2v.03h2Zm-1.89 8.32 1.89-8.32h-2l-1.89 8.32h2Zm3.12 3.9c-2.21 0-3.6-1.75-3.12-3.9h-2c-.73 3.23 1.36 5.85 4.67 5.85l.44-1.95Zm45.22 0h-45.22l-.44 1.95h45.22l.44-1.95Zm4.89-3.9c-.49 2.15-2.68 3.9-4.89 3.9l-.44 1.95c3.31 0 6.6-2.62 7.33-5.85h-2Zm5.19-22.86-5.19 22.86h2l5.19-22.86h-2Zm-3.12-3.9c2.21 0 3.6 1.75 3.12 3.9h2c.73-3.23-1.36-5.85-4.67-5.85l-.44 1.95Zm-30.78 0h30.78l.44-1.95h-30.78l-.44 1.95Zm0-4.44-.79 3.47h2l.79-3.47h-2Zm-3.12-3.9c2.21 0 3.6 1.75 3.12 3.9h2c.73-3.23-1.36-5.85-4.67-5.85l-.44 1.95Zm-9.44 0h9.44l.44-1.95h-9.44l-.44 1.95Z"/>
  <path class="cls-9" d="M412.74 238.94h11.56c1.1 0 1.8.87 1.56 1.95l-.49 2.17c-.24 1.08-1.34 1.95-2.44 1.95h-11.56c-1.1 0-1.8-.87-1.56-1.95l.49-2.17c.24-1.08 1.34-1.95 2.44-1.95ZM404.96 238.94h.67c1.1 0 1.8.87 1.56 1.95l-.49 2.17c-.24 1.08-1.34 1.95-2.44 1.95h-.67c-1.1 0-1.8-.87-1.56-1.95l.49-2.17c.24-1.08 1.34-1.95 2.44-1.95ZM516.24 292.03h30c1.1 0 1.8.87 1.56 1.95l-1.33 5.85c-.24 1.08-1.34 1.95-2.44 1.95h-30c-1.1 0-1.8-.87-1.56-1.95l1.33-5.85c.24-1.08 1.34-1.95 2.44-1.95ZM544.7 307.63h14c1.1 0 1.8.87 1.56 1.95l-.22.98c-.24 1.08-1.34 1.95-2.44 1.95h-14c-1.1 0-1.8-.87-1.56-1.95l.22-.98c.24-1.08 1.34-1.95 2.44-1.95ZM508.05 328.11h45c1.1 0 1.8.87 1.56 1.95l-.22.98c-.24 1.08-1.34 1.95-2.44 1.95h-45c-1.1 0-1.8-.87-1.56-1.95l.22-.98c.24-1.08 1.34-1.95 2.44-1.95ZM505.84 337.86h45c1.1 0 1.8.87 1.56 1.95l-.22.98c-.24 1.08-1.34 1.95-2.44 1.95h-45c-1.1 0-1.8-.87-1.56-1.95l.22-.98c.24-1.08 1.34-1.95 2.44-1.95ZM503.63 347.62h45c1.1 0 1.8.87 1.56 1.95l-.22.98c-.24 1.08-1.34 1.95-2.44 1.95h-45c-1.1 0-1.8-.87-1.56-1.95l.22-.98c.24-1.08 1.34-1.95 2.44-1.95ZM512.7 307.63h23c1.1 0 1.8.87 1.56 1.95l-.22.98c-.24 1.08-1.34 1.95-2.44 1.95h-23c-1.1 0-1.8-.87-1.56-1.95l.22-.98c.24-1.08 1.34-1.95 2.44-1.95ZM562.05 328.11h20c1.1 0 1.8.87 1.56 1.95l-.22.98c-.24 1.08-1.34 1.95-2.44 1.95h-20c-1.1 0-1.8-.87-1.56-1.95l.22-.98c.24-1.08 1.34-1.95 2.44-1.95ZM559.84 337.86h20c1.1 0 1.8.87 1.56 1.95l-.22.98c-.24 1.08-1.34 1.95-2.44 1.95h-20c-1.1 0-1.8-.87-1.56-1.95l.22-.98c.24-1.08 1.34-1.95 2.44-1.95Z"/>
  <path class="cls-4" d="M391.13 288.13c-1.11 0-2.2.87-2.44 1.95l-3.99 17.55c-.24 1.08.45 1.95 1.56 1.95h2c1.1 0 2.2-.87 2.44-1.95l3.99-17.55c.24-1.08-.45-1.95-1.56-1.95h-2Zm-22.89 3.9c-1.1 0-2.2.87-2.44 1.95l-3.1 13.65c-.24 1.08.45 1.95 1.56 1.95h2c1.1 0 2.2-.87 2.44-1.95l3.1-13.65c.24-1.08-.45-1.95-1.56-1.95h-2Zm-12.55 6.83c-1.11 0-2.2.87-2.44 1.95l-1.55 6.83c-.24 1.08.45 1.95 1.56 1.95h2c1.1 0 2.2-.87 2.44-1.95l1.55-6.83c.24-1.08-.45-1.95-1.56-1.95h-2Zm20.22-.97c.25-1.08 1.34-1.95 2.44-1.95h2c1.1 0 1.8.87 1.56 1.95l-2.21 9.75c-.24 1.08-1.34 1.95-2.44 1.95h-2c-1.11 0-1.8-.87-1.56-1.95l2.21-9.75Z"/>
  <path class="cls-10" d="M388.69 290.08Zm-3.99 17.55Zm4.99-17.55c.12-.54.67-.97 1.22-.97l.44-1.95c-1.66 0-3.3 1.31-3.66 2.93h2Zm-3.99 17.55 3.99-17.55h-2l-3.99 17.55h2Zm.78.98c-.55 0-.9-.44-.78-.98h-2c-.37 1.62.68 2.93 2.34 2.93l.44-1.95Zm2 0h-2l-.44 1.95h2l.44-1.95Zm1.22-.98c-.12.54-.67.98-1.22.98l-.44 1.95c1.66 0 3.3-1.31 3.66-2.93h-2Zm3.99-17.55-3.99 17.55h2l3.99-17.55h-2Zm-.78-.97c.55 0 .9.44.78.97h2c.37-1.62-.68-2.93-2.34-2.93l-.44 1.95Zm-2 0h2l.44-1.95h-2l-.44 1.95Zm-24.11 4.88c.12-.54.67-.98 1.22-.98l.44-1.95c-1.66 0-3.3 1.31-3.66 2.93h2Zm-3.1 13.65 3.1-13.65h-2l-3.1 13.65h2Zm.78.98c-.55 0-.9-.44-.78-.98h-2c-.37 1.62.68 2.93 2.34 2.93l.44-1.95Zm2 0h-2l-.44 1.95h2l.44-1.95Zm1.22-.98c-.12.54-.67.98-1.22.98l-.44 1.95c1.66 0 3.3-1.31 3.66-2.93h-2Zm3.1-13.65-3.1 13.65h2l3.1-13.65h-2Zm-.78-.98c.55 0 .9.44.78.98h2c.37-1.62-.68-2.93-2.34-2.93l-.44 1.95Zm-2 0h2l.44-1.95h-2l-.44 1.95Zm-13.77 7.8c.12-.54.67-.98 1.22-.98l.44-1.95c-1.66 0-3.3 1.31-3.66 2.93h2Zm-1.55 6.83 1.55-6.83h-2l-1.55 6.83h2Zm.78.98c-.55 0-.9-.44-.78-.98h-2c-.37 1.62.68 2.93 2.34 2.93l.44-1.95Zm2 0h-2l-.44 1.95h2l.44-1.95Zm1.22-.98c-.12.54-.67.98-1.22.98l-.44 1.95c1.66 0 3.3-1.31 3.66-2.93h-2Zm1.55-6.83-1.55 6.83h2l1.55-6.83h-2Zm-.78-.98c.55 0 .9.44.78.98h2c.37-1.62-.68-2.93-2.34-2.93l-.44 1.95Zm-2 0h2l.44-1.95h-2l-.44 1.95Zm23.11-4.88c-1.66 0-3.3 1.31-3.66 2.93h2c.12-.54.67-.98 1.22-.98l.44-1.95Zm2 0h-2l-.44 1.95h2l.44-1.95Zm2.34 2.93c.37-1.62-.68-2.93-2.34-2.93l-.44 1.95c.55 0 .9.44.78.98h2Zm-2.21 9.75 2.21-9.75h-2l-2.21 9.75h2Zm-3.66 2.93c1.66 0 3.3-1.31 3.66-2.93h-2c-.12.54-.67.98-1.22.98l-.44 1.95Zm-2 0h2l.44-1.95h-2l-.44 1.95Zm-2.34-2.93c-.37 1.62.68 2.93 2.34 2.93l.44-1.95c-.55 0-.9-.44-.78-.98h-2Zm2.21-9.75-2.21 9.75h2l2.21-9.75h-2Z"/>
  <path class="cls-3" d="m380.53 361.27 4.65-20.48c-9.72.98-11.55 6.83-16.49 8.78-4.94 1.95-9.39-.49-16.44 1.95-5.64 1.95-11.79 8.61-14.16 11.7h40c1.1 0 2.2-.87 2.44-1.95Z"/>
  <ellipse class="cls-9" cx="374.68" cy="345.18" rx="3.87" ry="3.09" transform="rotate(-38.61 374.614 345.145)"/>
  <ellipse class="cls-9" cx="589.75" cy="296.42" rx="9.39" ry="7.5" transform="rotate(-38.61 589.662 296.408)"/>
  <path class="cls-2" d="M589.79 291.9c.41-1.12 2.08-1.12 1.97 0-.07.74.73 1.1 1.45.64 1.08-.69 2 .46 1.09 1.36-.6.59-.43 1.46.31 1.55 1.12.15.75 1.78-.44 1.93-.78.1-1.35.96-1.01 1.55.51.9-.94 2.05-1.7 1.36-.51-.46-1.47-.1-1.74.64-.41 1.12-2.08 1.12-1.97 0 .07-.74-.74-1.1-1.45-.64-1.08.69-2-.46-1.09-1.36.6-.59.43-1.46-.31-1.55-1.12-.15-.75-1.78.44-1.93.78-.1 1.35-.96 1.01-1.55-.5-.9.94-2.05 1.7-1.36.5.45 1.47.1 1.74-.64Z"/>
  <path class="cls-8" d="m493.42 344.1-2.79 12.29c-.61 2.69-3.35 4.88-6.11 4.88H439c-.17-.64-.18-1.34 0-2.09l2.67-11.75c.32-1.43 1.27-2.79 2.6-3.71l26.01-18.18c2.28-1.59 5.1-1.55 6.59.11l16.55 18.45Z"/>
  <path class="cls-10" d="M493.42 344.1h1c.06-.27 0-.54-.16-.72l-.84.72Zm-2.79 12.29Zm-51.62 4.88-1 .42c.09.34.39.56.78.56l.22-.97Zm5.26-17.55-.48-.74.48.74Zm26.01-18.18-.48-.74.48.74Zm6.59.11-.84.72.84-.72Zm15.55 18.45-2.79 12.29h2l2.79-12.29h-2Zm-2.79 12.29c-.49 2.15-2.68 3.9-4.89 3.9l-.44 1.95c3.31 0 6.6-2.62 7.33-5.85h-2Zm-4.89 3.9h-45.52l-.44 1.95h45.52l.44-1.95Zm-46.75-1.11c-.2.89-.19 1.75 0 2.51l2-.84c-.13-.51-.14-1.07 0-1.67h-2Zm2.67-11.75-2.67 11.75h2l2.67-11.75h-2Zm3.12-4.45c-1.59 1.11-2.73 2.74-3.12 4.45h2c.26-1.14 1.02-2.23 2.08-2.97l-.96-1.48Zm26.02-18.18-26.02 18.18.96 1.48 26.01-18.18-.96-1.48Zm7.9.13c-1.78-1.99-5.17-2.04-7.9-.13l.96 1.48c1.82-1.27 4.08-1.24 5.27.09l1.67-1.44Zm16.55 18.46-16.55-18.46-1.67 1.44 16.55 18.46 1.67-1.44Z"/>
  <path class="cls-8" d="M471.98 361.27h-55.46c-2.76 0-4.5-2.18-3.89-4.88l5.82-25.64 20.48-14.86c2.54-1.85 5.76-1.59 7.07.55l25.54 41.74c.58.94.68 2.03.44 3.09Z"/>
  <path class="cls-10" d="m471.98 361.27-.22.98c.55 0 1.1-.43 1.22-.97h-1Zm-53.53-30.52-.5-.73c-.26.18-.44.45-.5.73h1Zm20.48-14.86.5.73-.5-.73Zm7.07.55-.91.62.91-.62Zm25.54 41.74-.91.62.91-.62Zm.66 2.11h-55.46l-.44 1.95h55.46l.44-1.95Zm-55.46 0c-2.21 0-3.6-1.75-3.11-3.9h-2c-.73 3.23 1.36 5.85 4.67 5.85l.44-1.95Zm-3.11-3.9 5.82-25.64h-2l-5.82 25.64h2Zm24.8-41.23-20.48 14.86 1 1.46 20.48-14.86-1-1.46Zm8.48.66c-1.58-2.57-5.43-2.88-8.48-.66l1 1.46c2.03-1.48 4.61-1.27 5.66.44l1.83-1.24Zm25.54 41.74-25.54-41.74-1.83 1.24 25.54 41.74 1.83-1.24Zm.52 3.71c.3-1.28.16-2.59-.52-3.71l-1.83 1.24c.47.76.55 1.63.35 2.46h2Z"/>
  <ellipse class="cls-9" cx="521.58" cy="231.08" rx="22.66" ry="18.09" transform="rotate(-38.61 521.508 231.077)"/>
  <ellipse class="cls-9" cx="521.58" cy="231.08" rx="20.91" ry="13.45" transform="rotate(-67.47 521.628 231.073)"/>
  <ellipse class="cls-9" cx="521.58" cy="231.08" rx="20.56" ry="6.64" transform="rotate(-75.68 521.613 231.078)"/>
  <path class="cls-10" d="m538.92 238.53-.22.97h.68l.39-.61-.85-.36Zm3.38-14.9 1.01-.36-.11-.61h-.68l-.22.97Zm-38.06 0 .22-.97h-.68l-.39.61.85.36Zm-3.38 14.9-1.01.36.11.61h.68l.22-.97Zm40.22-7.45c-.57 2.51-1.61 4.9-3.01 7.08l1.69.73c1.54-2.41 2.69-5.05 3.32-7.81h-2Zm.21-7.08c.4 2.19.36 4.58-.21 7.08h2c.63-2.76.68-5.4.23-7.81l-2.02.73Zm-37.27.61h38.06l.44-1.95h-38.06l-.44 1.95Zm-1.94 6.47c.57-2.51 1.61-4.9 3.01-7.08l-1.69-.73c-1.54 2.41-2.69 5.05-3.32 7.81h2Zm-.21 7.08c-.4-2.19-.36-4.58.21-7.08h-2c-.63 2.76-.68 5.4-.23 7.81l2.02-.73Zm37.27-.61h-38.06l-.44 1.95h38.06l.44-1.95Z"/>
  <path class="cls-15" d="M32 315h116.5M1 365h134M32 335h72M1 398h98"/>
  <circle class="cls-5" cx="256.5" cy="127.5" r="30.5"/>
  <path d="M267.55 115.78a4.922 4.922 0 0 1 1.65 6.76l-10.45 17.21a4.935 4.935 0 0 1-3.91 2.36c-1.61.1-3.17-.6-4.16-1.87l-6.76-8.61a4.919 4.919 0 0 1 .83-6.91 4.918 4.918 0 0 1 6.91.83l2.38 3.02 6.77-11.15a4.922 4.922 0 0 1 6.76-1.65Z" style="fill:#fcfcfc;fill-rule:evenodd;stroke:gray;stroke-width:2px"/>
  <path class="cls-4" d="M384.72 77.06A24.906 24.906 0 0 1 377 59c0-13.81 11.19-25 25-25s25 11.19 25 25-11.19 25-25 25c-4.12 0-8-1-11.43-2.76l-6.25 1.46c-1.08.25-1.97-.87-1.48-1.87l1.87-3.78Z"/>
  <path class="cls-10" d="m384.72 77.06.69-.72.53.51-.33.66-.9-.44Zm5.86 4.18-.23-.97.36-.08.33.17-.46.89Zm-6.25 1.46-.23-.97.23.97Zm-1.48-1.87-.9-.44.9.44Zm-4.84-21.84c0 6.82 2.84 12.97 7.41 17.34l-1.38 1.44a25.933 25.933 0 0 1-8.02-18.78h2Zm24-24c-13.26 0-24 10.75-24 24h-2c0-14.36 11.64-26 26-26v2Zm24 24c0-13.25-10.74-24-24-24v-2c14.36 0 26 11.64 26 26h-2Zm-24 24c13.26 0 24-10.75 24-24h2c0 14.36-11.64 26-26 26v-2Zm-10.97-2.65c3.29 1.69 7.01 2.65 10.97 2.65v2c-4.28 0-8.32-1.03-11.88-2.87l.92-1.78Zm-.23 1.86-6.25 1.46-.46-1.95 6.25-1.46.46 1.95Zm-6.25 1.46c-1.91.45-3.47-1.53-2.6-3.28l1.79.89c-.12.24.1.51.36.45l.46 1.95Zm-2.6-3.28 1.87-3.78 1.79.89-1.87 3.78-1.79-.89Z"/>
  <path class="cls-19" d="M466.36 108.37C473.53 101.46 478 91.75 478 81c0-20.99-17.01-38-38-38s-38 17.01-38 38 17.01 38 38 38c6.31 0 12.26-1.54 17.49-4.26h.05l9.36 2.27c1.64.39 3-1.29 2.27-2.81l-2.81-5.83Z"/>
  <path class="cls-10" d="m466.36 108.37-.69-.72-.52.5.31.65.9-.43Zm-8.87 6.38.26-.97-.38-.1-.34.18.46.89Zm.05.01.24-.97-.24.97Zm9.36 2.26.23-.97-.23.97Zm2.27-2.81.9-.43-.9.43Zm7.83-33.2c0 10.47-4.34 19.92-11.33 26.65l1.39 1.44c7.36-7.09 11.94-17.06 11.94-28.09h-2Zm-37-37c20.43 0 37 16.57 37 37h2c0-21.54-17.46-39-39-39v2Zm-37 37c0-20.43 16.57-37 37-37v-2c-21.54 0-39 17.46-39 39h2Zm37 37c-20.43 0-37-16.57-37-37h-2c0 21.54 17.46 39 39 39v-2Zm17.03-4.14a36.818 36.818 0 0 1-17.03 4.14v2c6.47 0 12.58-1.58 17.95-4.37l-.92-1.77Zm.2 1.85.07.02.47-1.94h-.03l-.52 1.93Zm.07.02 9.36 2.26.47-1.94-9.36-2.26-.47 1.94Zm9.36 2.26c2.46.59 4.5-1.94 3.41-4.22l-1.8.87c.36.76-.32 1.6-1.14 1.41l-.47 1.94Zm3.41-4.22-2.81-5.83-1.8.87 2.81 5.83 1.8-.87Z"/>
  <path class="cls-11" d="M428 81c0 2.21-1.79 4-4 4s-4-1.79-4-4 1.79-4 4-4 4 1.79 4 4Zm16 0c0 2.21-1.79 4-4 4s-4-1.79-4-4 1.79-4 4-4 4 1.79 4 4Zm12 4c2.21 0 4-1.79 4-4s-1.79-4-4-4-4 1.79-4 4 1.79 4 4 4Z"/>
  <path class="cls-4" d="M147.79 200h-35.66c-4.49 0-8.14-3.64-8.14-8.14a8.134 8.134 0 0 1 10.06-7.91v-.23c0-8.99 7.29-16.27 16.27-16.27 6.19 0 11.57 3.46 14.32 8.55 1-.27 2.06-.41 3.15-.41 6.74 0 12.21 5.46 12.21 12.21s-5.08 11.81-11.49 12.18v.02h-.72Z"/>
  <path class="cls-13" d="M112.1 200c-4.47 0-8.1-3.58-8.1-8s3.62-8 8.1-8c.66 0 1.29.08 1.9.22M114.35 187c-.23-1.1-.35-2.24-.35-3.41 0-9.16 7.37-16.59 16.47-16.59 6.29 0 11.76 3.55 14.53 8.77M147.73 200c6.77 0 12.27-5.37 12.27-12s-5.49-12-12.27-12c-2.49 0-4.8.72-6.73 1.97"/>
  <path class="cls-14" d="M149 200h-37"/>
  <path class="cls-4" d="M96.56 174c2.59 0 4.69-2.1 4.69-4.68a4.688 4.688 0 0 0-5.79-4.55v-.13c0-5.17-4.19-9.37-9.37-9.37-3.56 0-6.66 1.99-8.25 4.92-.58-.15-1.18-.24-1.81-.24-3.88 0-7.03 3.15-7.03 7.03s2.93 6.8 6.61 7.01h20.94Z"/>
  <path class="cls-13" d="M96.39 174c2.68 0 4.86-2.01 4.86-4.5s-2.17-4.5-4.86-4.5c-.39 0-.78.04-1.14.12M95.04 167c.13-.66.2-1.35.2-2.05 0-5.5-4.28-9.95-9.56-9.95-3.65 0-6.83 2.13-8.44 5.26"/>
  <path class="cls-13" d="M76.34 174c-3.92 0-7.1-3.13-7.1-7s3.18-7 7.1-7c1.44 0 2.78.42 3.9 1.15"/>
  <path class="cls-14" d="M75.24 174h21"/>
  <path class="cls-17" d="M77 403.5c0-6.35 5.15-11.5 11.5-11.5h482c6.35 0 11.5 5.15 11.5 11.5s-5.15 11.5-11.5 11.5h-482c-6.35 0-11.5-5.15-11.5-11.5Z"/>
  <path class="cls-5" d="M206 392c0 4.42 3.58 8 8 8h61c4.42 0 8-3.58 8-8h-77Z"/>
  <path class="cls-17" d="M426 403.5c0-6.35 5.15-11.5 11.5-11.5h133c6.35 0 11.5 5.15 11.5 11.5s-5.15 11.5-11.5 11.5h-133c-6.35 0-11.5-5.15-11.5-11.5Z"/>
  <path class="cls-17" d="M545 403.5c0-1.93 1.57-3.5 3.5-3.5h20c1.93 0 3.5 1.57 3.5 3.5s-1.57 3.5-3.5 3.5h-20c-1.93 0-3.5-1.57-3.5-3.5ZM509 403.5c0-1.93 1.57-3.5 3.5-3.5h20c1.93 0 3.5 1.57 3.5 3.5s-1.57 3.5-3.5 3.5h-20c-1.93 0-3.5-1.57-3.5-3.5Z"/>
  <ellipse class="cls-16" cx="292.19" cy="230.59" rx="38.68" ry="30.88" transform="rotate(-38.61 292.14 230.569)"/>
</svg>