<svg xmlns="http://www.w3.org/2000/svg" viewBox="0.5 0.959 491.6 442.27"><g id="arrow" transform="matrix(1, 0, 0, 1, 28.961378, 75.878838)"><path data-animation-path="" style="stroke-dasharray: 196px; stroke-dashoffset: 0px; stroke: rgb(0, 166, 63);" id="Kształt_2036" fill="none" d="M151.6,344.4c-5.9,3.2-31.5,16.9-34.9,18.6c-11.6,5.9-15.6,5.7-24.9,0 c-18.2-11.1-78.7-45.6-83.1-48.4s-7.4-5.9-2.6-9.4c5.1-3.6,18.5-10.8,18.5-10.8"/><path data-animation-arrow="" style="stroke-dasharray: 18px; stroke-dashoffset: 0px; stroke: rgb(0, 166, 63);" id="Kształt_2037" fill="none" d="M151.6,349.4v-6h-8"/><path data-animation-path="" style="stroke-dasharray: 75px; stroke-dashoffset: 0px; stroke: rgb(0, 166, 63);" id="Kształt_2015" fill="none" d="M292.6,24.6c3.8-2.3,9-5.5,14.9-9.1c6.2-3.8,9.5-5.4,14.1-3 c12.3,6.6,37.3,20.8,37.3,20.8"/><path data-animation-arrow="" style="stroke-dasharray: 18px; stroke-dashoffset: 0px; stroke: rgb(0, 166, 63);" id="Kształt_2016" fill="none" d="M299.6,25.9h-7v-5"/></g><g id="browser-1" data-animation-browser="" style="transform: translateY(0px); opacity: 1;"><path id="browser-body" fill-rule="evenodd" clip-rule="evenodd" fill="#FFFFFF" stroke="#B9C2D5" d="M213.8,1.5L4.2,121.9 c-2.1,1.2-3.4,3.4-3.7,5.7v152c0,2,1.6,2.7,3.7,1.5l209.6-120.4c2.1-1.2,3.4-3.4,3.7-5.8V3.1C217.5,1,215.8,0.4,213.8,1.5z"/><path id="Prostokąt_1026_1_" fill-rule="evenodd" clip-rule="evenodd" fill="#E2E7F1" d="M217,3.2c0,0,0.2-2.6-2.6-1.4 c-0.9,0.4-180.7,103.4-210.1,121c-3.2,2-3.3,5.7-3.3,5.7v17.1L217,22V3.2L217,3.2z"/><path id="dots" fill-rule="evenodd" clip-rule="evenodd" d="M24.8,119.3c-1.6,1.1-2.7,2.9-2.8,4.8 c0,1.8,1.2,2.5,2.8,1.6c1.7-1.1,2.7-2.9,2.8-4.8C27.6,119.1,26.4,118.4,24.8,119.3z M15.5,124.7c-1.6,1.1-2.7,2.9-2.8,4.8 c0,1.8,1.2,2.5,2.8,1.6c1.7-1.1,2.7-2.9,2.8-4.8C18.3,124.5,17,123.8,15.5,124.7z M34.6,113.6c-1.7,1.1-2.7,2.9-2.8,4.8 c0,1.8,1.2,2.5,2.8,1.6c1.7-1.1,2.7-2.9,2.8-4.8C37.4,113.5,36.1,112.7,34.6,113.6z" style="fill: rgb(0, 166, 63);"/></g><g id="browser-2" data-animation-browser="" style="transform: translateY(0px); opacity: 1;"><path id="browser-body-2" fill-rule="evenodd" clip-rule="evenodd" fill="#FFFFFF" stroke="#B9C2D5" d="M256.8,25.5L47.2,146 c-2.1,1.2-3.4,3.4-3.7,5.8v152c0,2,1.6,2.7,3.7,1.5l209.6-120.5c2.1-1.2,3.4-3.4,3.7-5.7v-152C260.4,25.1,258.8,24.4,256.8,25.5z"/><g id="search"><path id="Prostokąt_1058" fill-rule="evenodd" clip-rule="evenodd" fill="#E2E7F1" d="M231.2,80.2L75.4,170.4 c-0.9,0.7-1.4,1.8-1.4,3v32.5c0,1,1.4,1.4,2.4,0.8l154.8-89.8c1-0.6,1.6-1.6,1.8-2.8V80.9C233,80,232.2,79.6,231.2,80.2z"/><path id="Prostokąt_1058-2" fill-rule="evenodd" clip-rule="evenodd" fill="#FFFFFF" stroke="#B9C2D5" d="M201.4,107.1 L87.6,172.4c-0.6,0.4-1,1-1.1,1.7v17.2c0,0.6,0.5,0.8,1.1,0.4l113.8-65.3c0.6-0.4,1-1,1.1-1.7v-17.1 C202.4,106.9,201.9,106.7,201.4,107.1z"/><path id="Kształt_1210" fill-rule="evenodd" clip-rule="evenodd" d="M223.5,111.1l-2.4-1.4 c0.7-1.4,1.1-2.9,1.1-4.4c0-3.4-2.4-4.8-5.3-3.1c-3.1,2.1-5.1,5.5-5.3,9.2c0,3.4,2.4,4.8,5.3,3.1c1.3-0.8,2.4-1.9,3.3-3.2l2.4,1.4 c0.1,0,0.2,0,0.2,0c0.1-0.1,0.2-0.2,0.2-0.3l0.5-0.8C223.6,111.5,223.6,111.3,223.5,111.1L223.5,111.1L223.5,111.1z M216.9,103.8 c2.2-1.3,4-0.2,4,2.3c-0.1,2.8-1.6,5.4-4,6.9c-2.2,1.3-4,0.2-4-2.3C213.1,107.9,214.6,105.3,216.9,103.8L216.9,103.8z" style="fill: rgb(0, 166, 63);"/><path id="Prostokąt_1026_2_" fill-rule="evenodd" clip-rule="evenodd" fill="#E2E7F1" d="M260.1,27.1c0,0,0.2-2.6-2.6-1.4 c-0.9,0.4-180.7,102.8-210.1,120.4c-3.2,2-3.3,5.7-3.3,5.7V169l216-123V27.1z"/></g><g id="tlds"><path id="Prostokąt_1058-3" fill-rule="evenodd" clip-rule="evenodd" fill="#FFFFFF" stroke="#B9C2D5" d="M201.4,125.2l-57.5,33 c-28.3,16.2-56.4,32.4-56.4,32.4c-0.6,0.4-1,1-1.1,1.7v70.1c0,0.6,0.5,0.8,1.1,0.4l113.8-65.3c0.6-0.4,1-1,1.1-1.7v-70 C202.4,125,201.9,124.8,201.4,125.2z"/><path id="content" fill-rule="evenodd" clip-rule="evenodd" fill="#E2E7F1" d="M187.6,155.5l-81,46.4c-0.4,0.2-0.6,0.6-0.7,1.1v1 c0,0.4,0.3,0.5,0.7,0.3l81-46.4c0.4-0.2,0.6-0.6,0.7-1.1v-1C188.3,155.5,188,155.3,187.6,155.5z"/><path id="content-2" fill-rule="evenodd" clip-rule="evenodd" fill="#E2E7F1" d="M187.6,175.1l-81,46.4c-0.4,0.2-0.6,0.6-0.7,1.1 v1c0,0.4,0.3,0.5,0.7,0.3l81-46.4c0.4-0.2,0.6-0.6,0.7-1.1v-1C188.3,175.1,188,174.9,187.6,175.1z M187.6,184.7l-81,46.4 c-0.4,0.2-0.6,0.6-0.7,1.1v1c0,0.4,0.3,0.5,0.7,0.3l81-46.4c0.4-0.2,0.6-0.6,0.7-1.1v-1C188.3,184.6,188,184.5,187.6,184.7z"/><path id="content-3" fill-rule="evenodd" clip-rule="evenodd" d="M187.6,165.6l-81,46.4c-0.4,0.2-0.6,0.6-0.7,1.1 v1c0,0.4,0.3,0.5,0.7,0.3l81-46.4c0.4-0.2,0.6-0.6,0.7-1.1v-1C188.3,165.5,188,165.4,187.6,165.6z" style="fill: rgb(0, 166, 63);"/></g><path id="dots-2" fill-rule="evenodd" clip-rule="evenodd" d="M66.8,143.3c-1.6,1.1-2.7,2.9-2.8,4.8 c0,1.8,1.2,2.5,2.8,1.6c1.7-1.1,2.7-2.9,2.8-4.8C69.6,143.1,68.4,142.4,66.8,143.3z M57.5,148.7c-1.6,1.1-2.7,2.9-2.8,4.8 c0,1.8,1.2,2.5,2.8,1.6c1.7-1.1,2.7-2.9,2.8-4.8C60.3,148.5,59,147.8,57.5,148.7z M76.6,137.6c-1.7,1.1-2.7,2.9-2.8,4.8 c0,1.8,1.2,2.5,2.8,1.6c1.7-1.1,2.7-2.9,2.8-4.8C79.4,137.5,78.1,136.7,76.6,137.6z" style="fill: rgb(0, 166, 63);"/></g><g id="coins" transform="matrix(1, 0, 0, 1, 28.961378, 75.878838)"><g id="_1"><g id="money" data-animation-coin="" style="transform: translateY(0px); opacity: 1;"><path id="Elipsa_610" fill-rule="evenodd" clip-rule="evenodd" fill="#E2E7F1" stroke="#B9C2D5" d="M247.4,307 c-13.4,7.7-31.4,7.1-43.2-0.4c-4.8-3.1-8.6-6.6-8.7-11.5c0-5.9,0-13.2,0-13.2l61-1.3c0,0,0,10,0,14.6 C256.5,299.8,253.5,303.5,247.4,307z"/><path id="Elipsa_610-2" fill-rule="evenodd" clip-rule="evenodd" fill="#BEC6D8" stroke="#B9C2D5" d="M247.2,293.9 c-12.1,6.5-31.4,6.2-43.1-0.6s-11.4-17.6,0.6-24s31.4-6.2,43.1,0.6C259.6,276.6,259.3,287.4,247.2,293.9z"/></g><g id="money_kopia" data-animation-coin="" style="transform: translateY(0px); opacity: 1;"><path id="Elipsa_610-3" fill-rule="evenodd" clip-rule="evenodd" fill="#E2E7F1" stroke="#B9C2D5" d="M247.4,291 c-13.4,7.7-31.4,7.1-43.2-0.4c-4.8-3.1-8.6-6.6-8.7-11.5c0-6,0-13.3,0-13.3l61-1.3c0,0,0,10,0,14.6 C256.5,283.8,253.5,287.5,247.4,291z"/><path id="Elipsa_610-4" fill-rule="evenodd" clip-rule="evenodd" fill="#BEC6D8" stroke="#B9C2D5" d="M247.2,278.7 c-12.1,6.6-31.4,6.3-43.1-0.7s-11.4-18.1,0.6-24.7c12.1-6.6,31.4-6.3,43.1,0.7C259.6,261,259.3,272.1,247.2,278.7z"/></g><g id="money_kopia_2" data-animation-coin="" style="transform: translateY(0px); opacity: 1;"><path id="Elipsa_610-5" fill-rule="evenodd" clip-rule="evenodd" fill="#E2E7F1" stroke="#B9C2D5" d="M247.4,274 c-13.4,7.7-31.4,7.1-43.2-0.4c-4.8-3.1-8.6-6.6-8.7-11.5c0-5.9,0-13.3,0-13.3l61-1.3c0,0,0,10,0,14.6 C256.5,266.8,253.5,270.5,247.4,274z"/><path id="Elipsa_610-6" fill-rule="evenodd" clip-rule="evenodd" fill="#FFFFFF" stroke="#B9C2D5" d="M247.2,261.8 c-12.1,6.4-31.4,6.2-43.1-0.6c-11.7-6.8-11.4-17.6,0.6-24s31.4-6.2,43.1,0.6C259.6,244.6,259.3,255.4,247.2,261.8z"/><path id="Elipsa_610-7" fill-rule="evenodd" clip-rule="evenodd" fill="#FFFFFF" d="M242.5,259.3 c-9.4,5.2-24.5,5-33.7-0.5s-8.9-14.3,0.5-19.5s24.5-5,33.7,0.5S252,254,242.5,259.3z" style="stroke: rgb(0, 166, 63);"/><path fill-rule="evenodd" clip-rule="evenodd" d="M239.1,255.5l-2.5-1.5c0.5-0.4,1-0.9,1.4-1.4 c0.5-0.6,0.7-1.4,0.5-2.2c-0.3-0.8-0.9-1.5-1.7-1.9c-0.8-0.5-1.6-0.8-2.5-1c-0.9-0.1-1.7-0.2-2.6-0.1c-0.9,0.1-1.7,0.3-2.6,0.5 c-0.7,0.2-1.3,0.4-2,0.6l-4.7-2.8c0.7-0.3,1.5-0.7,2.3-0.9c1.2-0.3,2.4-0.5,3.7-0.5l-1.1-1.8c-1.4,0.1-2.8,0.3-4.1,0.6 c-1,0.3-1.9,0.7-2.9,1.1l-2.5-1.5l-2.4,1.3l2.5,1.5c-0.5,0.4-0.9,0.8-1.3,1.3c-0.5,0.6-0.7,1.4-0.5,2.2c0.3,0.8,0.9,1.5,1.7,1.9 c0.8,0.5,1.6,0.8,2.5,0.9c0.8,0.1,1.7,0.2,2.6,0c0.9-0.1,1.7-0.3,2.6-0.5c0.6-0.2,1.2-0.3,1.7-0.5l4.9,2.9c-1.7,0.7-3.4,1-5.2,1 l1.1,1.8c0.9,0,1.7-0.1,2.6-0.3c0.9-0.2,1.7-0.4,2.6-0.7c0.4-0.1,0.7-0.3,1.1-0.4l2.5,1.5L239.1,255.5z M230.2,249.9 c0.7-0.2,1.4-0.3,2-0.3s1.2,0.2,1.7,0.5c0.6,0.2,1,0.9,0.9,1.5c-0.2,0.4-0.4,0.7-0.8,1l-4.2-2.6 C229.9,250,230.1,249.9,230.2,249.9z M224.3,249.3c-0.6,0.2-1.3,0.3-2,0.3c-0.6,0-1.1-0.1-1.6-0.4c-0.6-0.2-1-0.9-0.9-1.5 c0.2-0.3,0.4-0.6,0.7-0.9l4,2.4C224.5,249.2,224.4,249.2,224.3,249.3z" style="stroke: rgb(0, 166, 63); fill: rgb(0, 166, 63);"/></g></g><g id="_1-2"><g id="money-2" data-animation-coin="" style="transform: translateY(0px); opacity: 1;"><path id="Elipsa_610-8" fill-rule="evenodd" clip-rule="evenodd" fill="#E2E7F1" stroke="#B9C2D5" d="M290.4,341.9 c-13.4,7.7-31.4,7.1-43.1-0.4c-4.8-3.1-8.6-6.6-8.7-11.5c0-5.9,0-13.2,0-13.2l60.9-1.3c0,0,0,10,0,14.6 C299.4,334.8,296.4,338.5,290.4,341.9z"/><path id="Elipsa_610-9" fill-rule="evenodd" clip-rule="evenodd" fill="#BEC6D8" stroke="#B9C2D5" d="M290.2,328.8 c-12.1,6.4-31.4,6.2-43-0.6c-11.7-6.8-11.4-17.6,0.6-24c12.1-6.4,31.4-6.2,43,0.6C302.5,311.6,302.3,322.4,290.2,328.8z"/></g><g id="money_kopia-2" data-animation-coin="" style="transform: translateY(0px); opacity: 1;"><path id="Elipsa_610-10" fill-rule="evenodd" clip-rule="evenodd" fill="#E2E7F1" stroke="#B9C2D5" d="M290.4,325 c-13.4,7.7-31.4,7.1-43.1-0.4c-4.8-3.1-8.6-6.6-8.7-11.5c0-5.9,0-13.2,0-13.2l60.9-1.3c0,0,0,10,0,14.6 C299.4,317.8,296.4,321.5,290.4,325z"/><path id="Elipsa_610-11" fill-rule="evenodd" clip-rule="evenodd" fill="#BEC6D8" stroke="#B9C2D5" d="M290.2,312.9 c-12.1,6.4-31.4,6.2-43-0.6c-11.7-6.8-11.4-17.6,0.6-24c12.1-6.4,31.4-6.2,43,0.6S302.3,306.4,290.2,312.9z"/></g><g id="money_kopia_2-2" data-animation-coin="" style="transform: translateY(0px); opacity: 1;"><path id="Elipsa_610-12" fill-rule="evenodd" clip-rule="evenodd" fill="#E2E7F1" stroke="#B9C2D5" d="M290.4,309 c-13.4,7.7-31.4,7.1-43.1-0.4c-4.8-3.1-8.6-6.6-8.7-11.5c0-5.9,0-13.2,0-13.2l60.9-1.3c0,0,0,10,0,14.6 C299.4,301.8,296.4,305.5,290.4,309z"/><path id="Elipsa_610-13" fill-rule="evenodd" clip-rule="evenodd" fill="#FFFFFF" stroke="#B9C2D5" d="M290,296.6 c-12.1,6.6-31.3,6.3-42.9-0.6c-11.7-6.9-11.4-17.8,0.6-24.4s31.3-6.2,42.9,0.7C302.3,279.2,302.1,290.1,290,296.6z"/><path id="Elipsa_610-14" fill-rule="evenodd" clip-rule="evenodd" fill="#FFFFFF" d="M285.9,294.1 c-9.5,5.3-24.8,5.1-33.9-0.5c-9.3-5.6-9-14.4,0.5-19.8c9.5-5.3,24.8-5.1,33.9,0.5C295.6,279.9,295.5,288.8,285.9,294.1z" style="stroke: rgb(0, 166, 63);"/><path fill-rule="evenodd" clip-rule="evenodd" d="M281.5,289.2l-2.5-1.5c0.5-0.4,1-0.9,1.4-1.4 c0.5-0.6,0.7-1.5,0.5-2.2c-0.3-0.8-0.9-1.5-1.7-1.9c-0.8-0.5-1.7-0.8-2.6-1c-0.9-0.1-1.8-0.2-2.6-0.1c-0.9,0.1-1.8,0.3-2.6,0.5 c-0.7,0.2-1.3,0.4-2,0.6l-4.7-2.8c0.8-0.4,1.5-0.7,2.3-0.9c1.2-0.3,2.5-0.5,3.7-0.6l-1.1-1.8c-1.4,0.1-2.8,0.3-4.2,0.7 c-1,0.3-2,0.6-2.9,1.1l-2.5-1.5l-2.4,1.3l2.6,1.5c-0.5,0.4-1,0.8-1.3,1.3c-0.5,0.6-0.7,1.4-0.5,2.2c0.3,0.8,0.9,1.5,1.7,1.9 c0.8,0.5,1.6,0.8,2.5,1c0.9,0.1,1.7,0.2,2.6,0c0.9-0.1,1.7-0.3,2.6-0.5c0.6-0.2,1.2-0.4,1.7-0.5l4.9,3c-1.7,0.7-3.5,1-5.3,1.1 l1.1,1.9c0.9,0,1.7-0.1,2.6-0.3c0.9-0.2,1.8-0.4,2.6-0.7c0.4-0.1,0.8-0.3,1.1-0.4l2.5,1.5L281.5,289.2z M272.5,283.6 c0.7-0.2,1.4-0.3,2.1-0.3c0.6,0,1.2,0.2,1.7,0.5c0.6,0.2,1,0.9,0.9,1.5c-0.2,0.4-0.4,0.7-0.8,1l-4.4-2.7 C272.2,283.7,272.4,283.6,272.5,283.6z M266.6,282.9c-0.7,0.2-1.3,0.3-2,0.3c-0.6,0-1.1-0.1-1.6-0.4c-0.6-0.2-1-0.9-0.9-1.5 c0.2-0.3,0.4-0.6,0.7-0.9l4.1,2.5C266.7,282.9,266.6,282.9,266.6,282.9z" style="stroke: rgb(0, 166, 63); fill: rgb(0, 166, 63);"/></g></g><g id="_1-3"><g id="money_kopia-3" data-animation-coin="" style="transform: translateY(0px); opacity: 1;"><path id="Elipsa_610-15" fill-rule="evenodd" clip-rule="evenodd" fill="#E2E7F1" stroke="#B9C2D5" d="M228.4,355 c-13.4,7.7-31.4,7.1-43.2-0.4c-4.8-3.1-8.7-6.6-8.7-11.5c0-5.9,0-13.2,0-13.2l61-1.3c0,0,0,10,0,14.6 C237.5,347.8,234.5,351.5,228.4,355z"/><path id="Elipsa_610-16" fill-rule="evenodd" clip-rule="evenodd" fill="#BEC6D8" stroke="#B9C2D5" d="M228.2,342.9 c-12.1,6.5-31.4,6.2-43.1-0.6s-11.4-17.6,0.6-24s31.4-6.2,43.1,0.6S240.3,336.4,228.2,342.9z"/></g><g id="money_kopia_2-3" data-animation-coin="" style="transform: translateY(0px); opacity: 1;"><path id="Elipsa_610-17" fill-rule="evenodd" clip-rule="evenodd" fill="#E2E7F1" stroke="#B9C2D5" d="M228.4,339 c-13.4,7.7-31.4,7.1-43.2-0.4c-4.8-3.1-8.7-6.6-8.7-11.5c0-5.9,0-13.2,0-13.2l61-1.3c0,0,0,10,0,14.6 C237.5,331.8,234.5,335.5,228.4,339z"/><path id="Elipsa_610-18" fill-rule="evenodd" clip-rule="evenodd" fill="#FFFFFF" stroke="#B9C2D5" d="M228.2,326.9 c-12.1,6.5-31.4,6.2-43.1-0.6s-11.4-17.6,0.6-24s31.4-6.2,43.1,0.6S240.3,320.4,228.2,326.9z"/><path id="Elipsa_610-19" fill-rule="evenodd" clip-rule="evenodd" fill="#FFFFFF" d="M223.2,324.7 c-9.5,5.3-24.7,5.1-33.9-0.5s-9-14.4,0.5-19.8s24.7-5.1,33.9,0.5S232.7,319.4,223.2,324.7z" style="stroke: rgb(0, 166, 63);"/><path fill-rule="evenodd" clip-rule="evenodd" d="M218.6,320.2l-2.5-1.5c0.5-0.4,1-0.9,1.4-1.4 c0.5-0.6,0.7-1.5,0.5-2.2c-0.3-0.8-0.9-1.6-1.7-2c-0.8-0.5-1.7-0.8-2.6-1c-0.9-0.2-1.8-0.2-2.6-0.1c-0.9,0.1-1.8,0.3-2.6,0.5 c-0.7,0.2-1.3,0.4-2,0.6l-4.7-2.8c0.8-0.4,1.5-0.7,2.3-0.9c1.2-0.3,2.5-0.5,3.7-0.6l-1-1.8c-1.4,0.1-2.8,0.3-4.2,0.6 c-1,0.3-2,0.6-2.9,1.1l-2.5-1.5l-2.4,1.3l2.5,1.5c-0.5,0.4-0.9,0.8-1.3,1.3c-0.5,0.6-0.7,1.4-0.5,2.2c0.3,0.8,0.9,1.5,1.7,1.9 c0.8,0.5,1.6,0.8,2.5,0.9s1.7,0.2,2.6,0.1c0.9-0.1,1.7-0.3,2.6-0.5c0.6-0.2,1.2-0.4,1.7-0.5l4.9,3c-1.7,0.7-3.5,1-5.3,1.1 l1.1,1.9c0.9,0,1.7-0.1,2.6-0.3c0.9-0.2,1.8-0.4,2.6-0.7c0.4-0.1,0.8-0.3,1.1-0.4l2.5,1.5L218.6,320.2z M209.7,314.6 c0.7-0.2,1.4-0.3,2.1-0.3c0.6,0,1.2,0.2,1.7,0.5c0.6,0.2,1,0.9,0.9,1.5c-0.2,0.4-0.4,0.8-0.8,1l-4.4-2.7 C209.4,314.7,209.5,314.7,209.7,314.6z M203.7,314c-0.7,0.2-1.3,0.3-2,0.3c-0.6,0-1.1-0.1-1.6-0.4c-0.6-0.2-1-0.9-0.9-1.5 c0.2-0.3,0.4-0.6,0.7-0.9l4.1,2.5C203.9,313.9,203.8,313.9,203.7,314z" style="stroke: rgb(0, 166, 63); fill: rgb(0, 166, 63);"/></g></g></g><g id="searching" transform="matrix(1, 0, 0, 1, 28.961378, 75.878838)"><g id="search-2" data-animation-search="" style="transform: translateY(0px); opacity: 1;"><path id="Prostokąt_zaokrąglony_1016" fill-rule="evenodd" clip-rule="evenodd" fill="#BEC6D8" d="M306.2,135.6 c2.2,1.5,4.4,2.9,6.7,4.1l42.1-29.3c1.5,4.3,4,8.1,7.3,11.2c4.5,4,11.5,8.1,17.2,11.1c22.7-28.9,60.3-70.8,64.5-115.9 c-4.3-2.1-8.5-4-11.4-5.7c-8.5-5-20.3-4.4-33.4,3.1c-25.7,14.7-46.5,50.2-46.8,79.7l-39.9,22.8c-5,2.9-9,9.2-9,14.1 C303.6,132.8,304.6,134.6,306.2,135.6z"/><path id="Prostokąt_zaokrąglony_1016-2" fill-rule="evenodd" clip-rule="evenodd" fill="#E2E7F1" stroke="#A6B3CF" d=" M321.2,139.9l44-25c5.4,20,23.8,26.4,45.7,13.9c26.1-14.9,47.3-51.3,47.3-81.2s-21.2-42-47.3-27.1c-25,14.3-45.4,48.1-47.2,77.2 l-42.5,24.1c-5,2.9-9,9.2-9,14.1S316.3,142.7,321.2,139.9z"/><path id="Elipsa_610-20" fill-rule="evenodd" clip-rule="evenodd" fill="#FFFFFF" stroke="#A6B3CF" d="M410.9,31.4 C390,43.3,373,72.4,373,96.3s16.9,33.6,37.9,21.7s37.9-41,37.9-64.9S431.8,19.5,410.9,31.4z"/><g><path fill="#144FC4" d="M392.9,89.9l3.2-1.8v3.6l-3.2,1.8V89.9z"/><path fill="#144FC4" d="M398.8,90.2v-9.4c0-0.6,0-1.2,0-1.9c0-0.6-0.1-1.2-0.1-1.8l2.7-1.5l0.2,2.5l-0.2,0.2 c0.4-1.2,0.9-2.3,1.6-3.2s1.5-1.7,2.5-2.2c2.7-1.6,4.1-0.5,4.1,3.1v8l-2.8,1.6v-7.9c0-1-0.2-1.7-0.5-2s-0.9-0.2-1.6,0.2 c-0.9,0.5-1.6,1.2-2.1,2.2c-0.5,0.9-0.8,1.9-0.8,3v7.4L398.8,90.2z"/><path d="M422.1,75.2c-0.5,0.8-1.2,1.6-2,2.4s-1.6,1.3-2.4,1.8c-1.2,0.7-2.3,1.1-3.2,1s-1.6-0.4-2.1-1.2 s-0.7-1.8-0.7-3.2c0-1.4,0.2-2.7,0.7-4s1.1-2.5,1.9-3.5s1.8-1.9,2.9-2.5c1-0.6,2-0.9,2.7-0.8c0.8,0.1,1.3,0.5,1.7,1.3 c0.4,0.8,0.6,1.8,0.6,3.2v0.5l-8.1,4.7v-1.8l6.4-3.7l-0.8,1.3c0-1.3-0.2-2.1-0.6-2.5s-1.1-0.4-1.9,0.1c-0.9,0.5-1.6,1.3-2.1,2.3 s-0.7,2.2-0.7,3.6c0,1.6,0.3,2.5,0.8,3c0.6,0.4,1.4,0.3,2.5-0.4c0.6-0.4,1.2-0.8,1.8-1.4c0.6-0.6,1.1-1.2,1.7-2L422.1,75.2z" style="fill: rgb(0, 166, 63);"/><path d="M423.1,65.4V63l8-4.6v2.4L423.1,65.4z M431.2,68.8v2.6c-0.3,0.3-0.6,0.5-0.9,0.8 c-0.3,0.2-0.6,0.4-0.9,0.6c-1.3,0.7-2.3,0.9-3,0.5s-1-1.4-1-3V58.5l2.8-2.7v12.6c0,0.6,0.1,1,0.2,1.2s0.4,0.4,0.7,0.3 c0.3,0,0.6-0.1,0.9-0.3c0.2-0.1,0.4-0.2,0.6-0.4C430.7,69.1,430.9,69,431.2,68.8z" style="fill: rgb(0, 166, 63);"/></g></g></g><g id="transfer" data-animation-icon="" style="transform: translateY(0px); opacity: 1;"><path id="Kształt_1009" fill-rule="evenodd" clip-rule="evenodd" d="M451.6,283.6L389,319.7v25.6l-40.6-7 l-16.2-9.8l56.8-82.2l16.2,9.9l-1.5,7.2l48-27.6l15.3,9.6L451.6,283.6z" style="fill: rgb(0, 166, 63);"/><path id="Kształt_1009-2" fill-rule="evenodd" clip-rule="evenodd" d="M357.1,250.1l16,10.1l46.9-46.1v25.6 l15.2,8.3l56.9-80.7l-15.5-9.8l-56.5-16.7v25.6l-63,36V250.1L357.1,250.1z" style="fill: rgb(0, 166, 63);"/><linearGradient id="Kształt_1009-3_1_" gradientUnits="userSpaceOnUse" x1="348" y1="698.3" x2="467" y2="698.3" gradientTransform="matrix(1 0 0 1 0 -398)"><stop offset="0" style="stop-color: rgb(0, 214, 82);"/><stop offset="1" style="stop-color: rgb(9, 128, 55);"/></linearGradient><path id="Kształt_1009-3" fill-rule="evenodd" clip-rule="evenodd" fill="url(#Kształt_1009-3_1_)" d="M467,293.4l-62.1,35.9 v25.5L348,338.1l56.9-81.9v25.5l62.1-35.9V293.4L467,293.4z"/><linearGradient id="Kształt_1009-4_1_" gradientUnits="userSpaceOnUse" x1="373.1" y1="603.4" x2="492.1" y2="603.4" gradientTransform="matrix(1 0 0 1 0 -398)"><stop offset="0" style="stop-color: rgb(29, 218, 101);"/><stop offset="1" style="stop-color: rgb(4, 136, 54);"/></linearGradient><path id="Kształt_1009-4" fill-rule="evenodd" clip-rule="evenodd" fill="url(#Kształt_1009-4_1_)" d="M373.1,259.9l63-36v25.5 l56-81.8L436,150.9v25.5l-62.9,35.9V259.9z"/></g></svg>